<?xml version="1.0" encoding="UTF-8" standalone="no"?>
<!DOCTYPE svg PUBLIC "-//W3C//DTD SVG 1.1//EN"
 "http://www.w3.org/Graphics/SVG/1.1/DTD/svg11.dtd">
<!-- Generated by graphviz version 2.43.0 (0)
 -->
<!-- Title: drivers/platform/aducm3029/aducm3029_uart.h Pages: 1 -->
<svg width="2653pt" height="192pt"
 viewBox="0.00 0.00 2653.00 192.00" xmlns="http://www.w3.org/2000/svg" xmlns:xlink="http://www.w3.org/1999/xlink">
<g id="graph0" class="graph" transform="scale(1 1) rotate(0) translate(4 188)">
<title>drivers/platform/aducm3029/aducm3029_uart.h</title>
<!-- Node1 -->
<g id="Node000001" class="node">
<title>Node1</title>
<g id="a_Node000001"><a xlink:title="Header file of UART driver for ADuCM302x.">
<polygon fill="#999999" stroke="#666666" points="1232,-184 1077,-184 1077,-154 1232,-154 1232,-184"/>
<text text-anchor="start" x="1085" y="-172" font-family="Helvetica,sans-Serif" font-size="10.00">drivers/platform/aducm3029</text>
<text text-anchor="middle" x="1154.5" y="-161" font-family="Helvetica,sans-Serif" font-size="10.00">/aducm3029_uart.h</text>
</a>
</g>
</g>
<!-- Node2 -->
<g id="Node000002" class="node">
<title>Node2</title>
<g id="a_Node000002"><a xlink:href="aducm3029__irq_8c.html" target="_top" xlink:title="Implementation of External IRQ driver for ADuCM302x.">
<polygon fill="white" stroke="#666666" points="155,-112.5 0,-112.5 0,-82.5 155,-82.5 155,-112.5"/>
<text text-anchor="start" x="8" y="-100.5" font-family="Helvetica,sans-Serif" font-size="10.00">drivers/platform/aducm3029</text>
<text text-anchor="middle" x="77.5" y="-89.5" font-family="Helvetica,sans-Serif" font-size="10.00">/aducm3029_irq.c</text>
</a>
</g>
</g>
<!-- Node1&#45;&gt;Node2 -->
<g id="edge1_Node000001_Node000002" class="edge">
<title>Node1&#45;&gt;Node2</title>
<g id="a_edge1_Node000001_Node000002"><a xlink:title=" ">
<path fill="none" stroke="#63b8ff" d="M1066.89,-168.64C893.52,-168.78 494.81,-163.57 163.5,-118 153.49,-116.62 142.93,-114.66 132.76,-112.5"/>
<polygon fill="#63b8ff" stroke="#63b8ff" points="1066.98,-172.14 1076.98,-168.62 1066.97,-165.14 1066.98,-172.14"/>
</a>
</g>
</g>
<!-- Node3 -->
<g id="Node000003" class="node">
<title>Node3</title>
<g id="a_Node000003"><a xlink:href="aducm3029__uart_8c.html" target="_top" xlink:title="Implementation of UART driver for ADuCM302x.">
<polygon fill="white" stroke="#666666" points="328,-112.5 173,-112.5 173,-82.5 328,-82.5 328,-112.5"/>
<text text-anchor="start" x="181" y="-100.5" font-family="Helvetica,sans-Serif" font-size="10.00">drivers/platform/aducm3029</text>
<text text-anchor="middle" x="250.5" y="-89.5" font-family="Helvetica,sans-Serif" font-size="10.00">/aducm3029_uart.c</text>
</a>
</g>
</g>
<!-- Node1&#45;&gt;Node3 -->
<g id="edge2_Node000001_Node000003" class="edge">
<title>Node1&#45;&gt;Node3</title>
<g id="a_edge2_Node000001_Node000003"><a xlink:title=" ">
<path fill="none" stroke="#63b8ff" d="M1066.85,-167.21C916.76,-164.83 601.23,-155.38 337.5,-118 327.54,-116.59 317.03,-114.64 306.89,-112.51"/>
<polygon fill="#63b8ff" stroke="#63b8ff" points="1066.87,-170.71 1076.93,-167.36 1066.98,-163.71 1066.87,-170.71"/>
</a>
</g>
</g>
<!-- Node4 -->
<g id="Node000004" class="node">
<title>Node4</title>
<g id="a_Node000004"><a xlink:href="ad7746-ebz_2src_2app_2headless_8c.html" target="_top" xlink:title="AD7746&#45;EBZ demo project main file.">
<polygon fill="white" stroke="#666666" points="462.5,-112.5 346.5,-112.5 346.5,-82.5 462.5,-82.5 462.5,-112.5"/>
<text text-anchor="start" x="354.5" y="-100.5" font-family="Helvetica,sans-Serif" font-size="10.00">projects/ad7746&#45;ebz</text>
<text text-anchor="middle" x="404.5" y="-89.5" font-family="Helvetica,sans-Serif" font-size="10.00">/src/app/headless.c</text>
</a>
</g>
</g>
<!-- Node1&#45;&gt;Node4 -->
<g id="edge3_Node000001_Node000004" class="edge">
<title>Node1&#45;&gt;Node4</title>
<g id="a_edge3_Node000001_Node000004"><a xlink:title=" ">
<path fill="none" stroke="#63b8ff" d="M1066.4,-167.44C935.59,-165.29 682.69,-156.03 471.5,-118 463.75,-116.6 455.62,-114.66 447.79,-112.54"/>
<polygon fill="#63b8ff" stroke="#63b8ff" points="1066.71,-170.95 1076.76,-167.6 1066.82,-163.95 1066.71,-170.95"/>
</a>
</g>
</g>
<!-- Node5 -->
<g id="Node000005" class="node">
<title>Node5</title>
<g id="a_Node000005"><a xlink:href="ada4250__ardz_2src_2platform_2aducm3029_2parameters_8h.html" target="_top" xlink:title="Definitions specific to ADuCM3029 platform used by ada4250_ardz project.">
<polygon fill="white" stroke="#666666" points="620,-118 481,-118 481,-77 620,-77 620,-118"/>
<text text-anchor="start" x="489" y="-106" font-family="Helvetica,sans-Serif" font-size="10.00">projects/ada4250_ardz</text>
<text text-anchor="start" x="489" y="-95" font-family="Helvetica,sans-Serif" font-size="10.00">/src/platform/aducm3029</text>
<text text-anchor="middle" x="550.5" y="-84" font-family="Helvetica,sans-Serif" font-size="10.00">/parameters.h</text>
</a>
</g>
</g>
<!-- Node1&#45;&gt;Node5 -->
<g id="edge4_Node000001_Node000005" class="edge">
<title>Node1&#45;&gt;Node5</title>
<g id="a_edge4_Node000001_Node000005"><a xlink:title=" ">
<path fill="none" stroke="#63b8ff" d="M1066.7,-163.69C961.84,-157.62 781.4,-144.23 628.5,-118 625.75,-117.53 622.95,-117.01 620.13,-116.46"/>
<polygon fill="#63b8ff" stroke="#63b8ff" points="1066.74,-167.2 1076.92,-164.28 1067.14,-160.21 1066.74,-167.2"/>
</a>
</g>
</g>
<!-- Node8 -->
<g id="Node000008" class="node">
<title>Node8</title>
<g id="a_Node000008"><a xlink:href="aducm3029__flash__demo_2src_2platform_2aducm3029_2parameters_8h.html" target="_top" xlink:title="Definitions specific to ADuCM3029 platform used by aducm3029_flash_demo project.">
<polygon fill="white" stroke="#666666" points="783,-118 638,-118 638,-77 783,-77 783,-118"/>
<text text-anchor="start" x="646" y="-106" font-family="Helvetica,sans-Serif" font-size="10.00">projects/aducm3029</text>
<text text-anchor="start" x="646" y="-95" font-family="Helvetica,sans-Serif" font-size="10.00">_flash_demo/src/platform</text>
<text text-anchor="middle" x="710.5" y="-84" font-family="Helvetica,sans-Serif" font-size="10.00">/aducm3029/parameters.h</text>
</a>
</g>
</g>
<!-- Node1&#45;&gt;Node8 -->
<g id="edge7_Node000001_Node000008" class="edge">
<title>Node1&#45;&gt;Node8</title>
<g id="a_edge7_Node000001_Node000008"><a xlink:title=" ">
<path fill="none" stroke="#63b8ff" d="M1066.78,-158.39C993.01,-149.72 884.94,-135.64 791.5,-118 788.8,-117.49 786.05,-116.95 783.28,-116.38"/>
<polygon fill="#63b8ff" stroke="#63b8ff" points="1066.62,-161.9 1076.95,-159.58 1067.43,-154.95 1066.62,-161.9"/>
</a>
</g>
</g>
<!-- Node10 -->
<g id="Node000010" class="node">
<title>Node10</title>
<g id="a_Node000010"><a xlink:href="adxrs290-pmdz_2src_2platform_2aducm3029_2parameters_8h.html" target="_top" xlink:title="Definitions specific to STM32 platform used by eval&#45;adxrs290&#45;pmdz project.">
<polygon fill="white" stroke="#666666" points="940,-118 801,-118 801,-77 940,-77 940,-118"/>
<text text-anchor="start" x="809" y="-106" font-family="Helvetica,sans-Serif" font-size="10.00">projects/adxrs290&#45;pmdz</text>
<text text-anchor="start" x="809" y="-95" font-family="Helvetica,sans-Serif" font-size="10.00">/src/platform/aducm3029</text>
<text text-anchor="middle" x="870.5" y="-84" font-family="Helvetica,sans-Serif" font-size="10.00">/parameters.h</text>
</a>
</g>
</g>
<!-- Node1&#45;&gt;Node10 -->
<g id="edge9_Node000001_Node000010" class="edge">
<title>Node1&#45;&gt;Node10</title>
<g id="a_edge9_Node000001_Node000010"><a xlink:title=" ">
<path fill="none" stroke="#63b8ff" d="M1086.72,-151.52C1046.77,-141.79 995.25,-129.23 949.5,-118 946.48,-117.26 943.4,-116.5 940.28,-115.74"/>
<polygon fill="#63b8ff" stroke="#63b8ff" points="1086.07,-154.96 1096.61,-153.93 1087.72,-148.16 1086.07,-154.96"/>
</a>
</g>
</g>
<!-- Node13 -->
<g id="Node000013" class="node">
<title>Node13</title>
<g id="a_Node000013"><a xlink:href="cn0531_2src_2platform_2aducm3029_2parameters_8h.html" target="_top" xlink:title="Definitions specific to ADuCM3029 platform used by cn0531 project.">
<polygon fill="white" stroke="#666666" points="1080.5,-118 958.5,-118 958.5,-77 1080.5,-77 1080.5,-118"/>
<text text-anchor="start" x="966.5" y="-106" font-family="Helvetica,sans-Serif" font-size="10.00">projects/cn0531/src</text>
<text text-anchor="start" x="966.5" y="-95" font-family="Helvetica,sans-Serif" font-size="10.00">/platform/aducm3029</text>
<text text-anchor="middle" x="1019.5" y="-84" font-family="Helvetica,sans-Serif" font-size="10.00">/parameters.h</text>
</a>
</g>
</g>
<!-- Node1&#45;&gt;Node13 -->
<g id="edge12_Node000001_Node000013" class="edge">
<title>Node1&#45;&gt;Node13</title>
<g id="a_edge12_Node000001_Node000013"><a xlink:title=" ">
<path fill="none" stroke="#63b8ff" d="M1118.07,-149.24C1099.32,-139.59 1076.49,-127.84 1057.52,-118.07"/>
<polygon fill="#63b8ff" stroke="#63b8ff" points="1116.69,-152.47 1127.18,-153.94 1119.89,-146.25 1116.69,-152.47"/>
</a>
</g>
</g>
<!-- Node16 -->
<g id="Node000016" class="node">
<title>Node16</title>
<g id="a_Node000016"><a xlink:href="cn0552_2src_2app_2headless_8c.html" target="_top" xlink:title="CN0552 IIO demo project main file.">
<polygon fill="white" stroke="#666666" points="1210,-112.5 1099,-112.5 1099,-82.5 1210,-82.5 1210,-112.5"/>
<text text-anchor="start" x="1107" y="-100.5" font-family="Helvetica,sans-Serif" font-size="10.00">projects/cn0552/src</text>
<text text-anchor="middle" x="1154.5" y="-89.5" font-family="Helvetica,sans-Serif" font-size="10.00">/app/headless.c</text>
</a>
</g>
</g>
<!-- Node1&#45;&gt;Node16 -->
<g id="edge15_Node000001_Node000016" class="edge">
<title>Node1&#45;&gt;Node16</title>
<g id="a_edge15_Node000001_Node000016"><a xlink:title=" ">
<path fill="none" stroke="#63b8ff" d="M1154.5,-143.75C1154.5,-133.31 1154.5,-121.49 1154.5,-112.54"/>
<polygon fill="#63b8ff" stroke="#63b8ff" points="1151,-143.94 1154.5,-153.94 1158,-143.94 1151,-143.94"/>
</a>
</g>
</g>
<!-- Node17 -->
<g id="Node000017" class="node">
<title>Node17</title>
<g id="a_Node000017"><a xlink:href="cn0565_2src_2platform_2aducm3029_2parameters_8h.html" target="_top" xlink:title="Definitions specific to ADuCM3029 platform used by cn0565 project.">
<polygon fill="white" stroke="#666666" points="1350.5,-118 1228.5,-118 1228.5,-77 1350.5,-77 1350.5,-118"/>
<text text-anchor="start" x="1236.5" y="-106" font-family="Helvetica,sans-Serif" font-size="10.00">projects/cn0565/src</text>
<text text-anchor="start" x="1236.5" y="-95" font-family="Helvetica,sans-Serif" font-size="10.00">/platform/aducm3029</text>
<text text-anchor="middle" x="1289.5" y="-84" font-family="Helvetica,sans-Serif" font-size="10.00">/parameters.h</text>
</a>
</g>
</g>
<!-- Node1&#45;&gt;Node17 -->
<g id="edge16_Node000001_Node000017" class="edge">
<title>Node1&#45;&gt;Node17</title>
<g id="a_edge16_Node000001_Node000017"><a xlink:title=" ">
<path fill="none" stroke="#63b8ff" d="M1190.93,-149.24C1209.68,-139.59 1232.51,-127.84 1251.48,-118.07"/>
<polygon fill="#63b8ff" stroke="#63b8ff" points="1189.11,-146.25 1181.82,-153.94 1192.31,-152.47 1189.11,-146.25"/>
</a>
</g>
</g>
<!-- Node20 -->
<g id="Node000020" class="node">
<title>Node20</title>
<g id="a_Node000020"><a xlink:href="demo__esp_2src_2platform_2aducm3029_2parameters_8h.html" target="_top" xlink:title="Definitions specific to aducm3029 platform used by demo_esp project.">
<polygon fill="white" stroke="#666666" points="1558.5,-112.5 1368.5,-112.5 1368.5,-82.5 1558.5,-82.5 1558.5,-112.5"/>
<text text-anchor="start" x="1376.5" y="-100.5" font-family="Helvetica,sans-Serif" font-size="10.00">projects/demo_esp/src</text>
<text text-anchor="middle" x="1463.5" y="-89.5" font-family="Helvetica,sans-Serif" font-size="10.00">/platform/aducm3029/parameters.h</text>
</a>
</g>
</g>
<!-- Node1&#45;&gt;Node20 -->
<g id="edge19_Node000001_Node000020" class="edge">
<title>Node1&#45;&gt;Node20</title>
<g id="a_edge19_Node000001_Node000020"><a xlink:title=" ">
<path fill="none" stroke="#63b8ff" d="M1227.01,-151.69C1279.86,-139.8 1350.72,-123.87 1401.06,-112.54"/>
<polygon fill="#63b8ff" stroke="#63b8ff" points="1226.02,-148.33 1217.03,-153.94 1227.56,-155.16 1226.02,-148.33"/>
</a>
</g>
</g>
<!-- Node23 -->
<g id="Node000023" class="node">
<title>Node23</title>
<g id="a_Node000023"><a xlink:href="eval-adxl355-pmdz_2src_2platform_2aducm3029_2parameters_8h.html" target="_top" xlink:title="Definitions specific to aducm3029 platform used by eval&#45;adxl355&#45;pmdz project.">
<polygon fill="white" stroke="#666666" points="1841.5,-118 1671.5,-118 1671.5,-77 1841.5,-77 1841.5,-118"/>
<text text-anchor="start" x="1679.5" y="-106" font-family="Helvetica,sans-Serif" font-size="10.00">projects/eval&#45;adxl355</text>
<text text-anchor="start" x="1679.5" y="-95" font-family="Helvetica,sans-Serif" font-size="10.00">&#45;pmdz/src/platform/aducm3029</text>
<text text-anchor="middle" x="1756.5" y="-84" font-family="Helvetica,sans-Serif" font-size="10.00">/parameters.h</text>
</a>
</g>
</g>
<!-- Node1&#45;&gt;Node23 -->
<g id="edge22_Node000001_Node000023" class="edge">
<title>Node1&#45;&gt;Node23</title>
<g id="a_edge22_Node000001_Node000023"><a xlink:title=" ">
<path fill="none" stroke="#63b8ff" d="M1242.45,-157.85C1357.43,-144.57 1557.51,-121.47 1671.18,-108.35"/>
<polygon fill="#63b8ff" stroke="#63b8ff" points="1241.81,-154.4 1232.28,-159.02 1242.61,-161.35 1241.81,-154.4"/>
</a>
</g>
</g>
<!-- Node26 -->
<g id="Node000026" class="node">
<title>Node26</title>
<g id="a_Node000026"><a xlink:href="eval-ltc4306_2src_2platform_2aducm3029_2parameters_8h.html" target="_top" xlink:title="Definitions specific to aducm3029 platform used by eval&#45;ltc4306&#45;pmdz project.">
<polygon fill="white" stroke="#666666" points="1999,-118 1860,-118 1860,-77 1999,-77 1999,-118"/>
<text text-anchor="start" x="1868" y="-106" font-family="Helvetica,sans-Serif" font-size="10.00">projects/eval&#45;ltc4306</text>
<text text-anchor="start" x="1868" y="-95" font-family="Helvetica,sans-Serif" font-size="10.00">/src/platform/aducm3029</text>
<text text-anchor="middle" x="1929.5" y="-84" font-family="Helvetica,sans-Serif" font-size="10.00">/parameters.h</text>
</a>
</g>
</g>
<!-- Node1&#45;&gt;Node26 -->
<g id="edge25_Node000001_Node000026" class="edge">
<title>Node1&#45;&gt;Node26</title>
<g id="a_edge25_Node000001_Node000026"><a xlink:title=" ">
<path fill="none" stroke="#63b8ff" d="M1242.33,-166.48C1374.88,-163.1 1633.59,-152.31 1850.5,-118 1853.57,-117.51 1856.7,-116.97 1859.84,-116.38"/>
<polygon fill="#63b8ff" stroke="#63b8ff" points="1242.15,-162.98 1232.24,-166.72 1242.32,-169.98 1242.15,-162.98"/>
</a>
</g>
</g>
<!-- Node28 -->
<g id="Node000028" class="node">
<title>Node28</title>
<g id="a_Node000028"><a xlink:href="iio__adpd1080_2src_2platform_2aducm3029_2parameters_8h.html" target="_top" xlink:title="Definitions specific to ADuCM3029 platform used by iio_adpd1080 project.">
<polygon fill="white" stroke="#666666" points="2156,-118 2017,-118 2017,-77 2156,-77 2156,-118"/>
<text text-anchor="start" x="2025" y="-106" font-family="Helvetica,sans-Serif" font-size="10.00">projects/iio_adpd1080</text>
<text text-anchor="start" x="2025" y="-95" font-family="Helvetica,sans-Serif" font-size="10.00">/src/platform/aducm3029</text>
<text text-anchor="middle" x="2086.5" y="-84" font-family="Helvetica,sans-Serif" font-size="10.00">/parameters.h</text>
</a>
</g>
</g>
<!-- Node1&#45;&gt;Node28 -->
<g id="edge27_Node000001_Node000028" class="edge">
<title>Node1&#45;&gt;Node28</title>
<g id="a_edge27_Node000001_Node000028"><a xlink:title=" ">
<path fill="none" stroke="#63b8ff" d="M1242.46,-168.14C1397.78,-167.22 1730.42,-159.95 2007.5,-118 2010.57,-117.53 2013.7,-117.01 2016.85,-116.43"/>
<polygon fill="#63b8ff" stroke="#63b8ff" points="1242.02,-164.64 1232.04,-168.2 1242.05,-171.64 1242.02,-164.64"/>
</a>
</g>
</g>
<!-- Node30 -->
<g id="Node000030" class="node">
<title>Node30</title>
<g id="a_Node000030"><a xlink:href="iio__aducm3029_2src_2main_8c.html" target="_top" xlink:title="Implementation of Main Function.">
<polygon fill="white" stroke="#666666" points="2307,-112.5 2174,-112.5 2174,-82.5 2307,-82.5 2307,-112.5"/>
<text text-anchor="start" x="2182" y="-100.5" font-family="Helvetica,sans-Serif" font-size="10.00">projects/iio_aducm3029</text>
<text text-anchor="middle" x="2240.5" y="-89.5" font-family="Helvetica,sans-Serif" font-size="10.00">/src/main.c</text>
</a>
</g>
</g>
<!-- Node1&#45;&gt;Node30 -->
<g id="edge29_Node000001_Node000030" class="edge">
<title>Node1&#45;&gt;Node30</title>
<g id="a_edge29_Node000001_Node000030"><a xlink:title=" ">
<path fill="none" stroke="#63b8ff" d="M1242.48,-165.92C1454.27,-160.55 1987.95,-144.74 2164.5,-118 2173.39,-116.65 2182.75,-114.71 2191.74,-112.56"/>
<polygon fill="#63b8ff" stroke="#63b8ff" points="1242.25,-162.43 1232.34,-166.18 1242.42,-169.43 1242.25,-162.43"/>
</a>
</g>
</g>
<!-- Node31 -->
<g id="Node000031" class="node">
<title>Node31</title>
<g id="a_Node000031"><a xlink:href="iio__demo_2src_2platform_2aducm3029_2parameters_8h.html" target="_top" xlink:title="Definitions specific to aducm3029 platform used by iio_demo project.">
<polygon fill="white" stroke="#666666" points="2627.5,-112.5 2437.5,-112.5 2437.5,-82.5 2627.5,-82.5 2627.5,-112.5"/>
<text text-anchor="start" x="2445.5" y="-100.5" font-family="Helvetica,sans-Serif" font-size="10.00">projects/iio_demo/src</text>
<text text-anchor="middle" x="2532.5" y="-89.5" font-family="Helvetica,sans-Serif" font-size="10.00">/platform/aducm3029/parameters.h</text>
</a>
</g>
</g>
<!-- Node1&#45;&gt;Node31 -->
<g id="edge30_Node000001_Node000031" class="edge">
<title>Node1&#45;&gt;Node31</title>
<g id="a_edge30_Node000001_Node000031"><a xlink:title=" ">
<path fill="none" stroke="#63b8ff" d="M1242.21,-165.63C1436.09,-160.1 1915.68,-144.7 2316.5,-118 2356.14,-115.36 2399.79,-111.58 2437.41,-108.06"/>
<polygon fill="#63b8ff" stroke="#63b8ff" points="1241.98,-162.14 1232.08,-165.92 1242.18,-169.14 1241.98,-162.14"/>
</a>
</g>
</g>
<!-- Node6 -->
<g id="Node000006" class="node">
<title>Node6</title>
<g id="a_Node000006"><a xlink:href="ada4250__ardz_2src_2platform_2aducm3029_2main_8c.html" target="_top" xlink:title="Main file for ADuCM3029 platform of ada4250_ardz project.">
<polygon fill="white" stroke="#666666" points="173,-41 34,-41 34,0 173,0 173,-41"/>
<text text-anchor="start" x="42" y="-29" font-family="Helvetica,sans-Serif" font-size="10.00">projects/ada4250_ardz</text>
<text text-anchor="start" x="42" y="-18" font-family="Helvetica,sans-Serif" font-size="10.00">/src/platform/aducm3029</text>
<text text-anchor="middle" x="103.5" y="-7" font-family="Helvetica,sans-Serif" font-size="10.00">/main.c</text>
</a>
</g>
</g>
<!-- Node5&#45;&gt;Node6 -->
<g id="edge5_Node000005_Node000006" class="edge">
<title>Node5&#45;&gt;Node6</title>
<g id="a_edge5_Node000005_Node000006"><a xlink:title=" ">
<path fill="none" stroke="#63b8ff" d="M470.95,-77.03C342.04,-53.93 306.06,-64.21 181.5,-41 178.76,-40.49 175.96,-39.94 173.15,-39.36"/>
<polygon fill="#63b8ff" stroke="#63b8ff" points="470.34,-80.47 480.81,-78.82 471.6,-73.59 470.34,-80.47"/>
</a>
</g>
</g>
<!-- Node7 -->
<g id="Node000007" class="node">
<title>Node7</title>
<g id="a_Node000007"><a xlink:href="ada4250__ardz_2src_2platform_2aducm3029_2parameters_8c.html" target="_top" xlink:title="Definition of ADuCM3029 platform data used by ada4250_ardz project.">
<polygon fill="white" stroke="#666666" points="330,-41 191,-41 191,0 330,0 330,-41"/>
<text text-anchor="start" x="199" y="-29" font-family="Helvetica,sans-Serif" font-size="10.00">projects/ada4250_ardz</text>
<text text-anchor="start" x="199" y="-18" font-family="Helvetica,sans-Serif" font-size="10.00">/src/platform/aducm3029</text>
<text text-anchor="middle" x="260.5" y="-7" font-family="Helvetica,sans-Serif" font-size="10.00">/parameters.c</text>
</a>
</g>
</g>
<!-- Node5&#45;&gt;Node7 -->
<g id="edge6_Node000005_Node000007" class="edge">
<title>Node5&#45;&gt;Node7</title>
<g id="a_edge6_Node000005_Node000007"><a xlink:title=" ">
<path fill="none" stroke="#63b8ff" d="M470.86,-75.9C426.81,-64.51 372.59,-50.49 330.23,-39.53"/>
<polygon fill="#63b8ff" stroke="#63b8ff" points="470.11,-79.32 480.67,-78.44 471.86,-72.55 470.11,-79.32"/>
</a>
</g>
</g>
<!-- Node9 -->
<g id="Node000009" class="node">
<title>Node9</title>
<g id="a_Node000009"><a xlink:href="aducm3029__flash__demo_2src_2platform_2aducm3029_2main_8c.html" target="_top" xlink:title="Main file for ADuCM3029 platform of aducm3029_flash_demo project.">
<polygon fill="white" stroke="#666666" points="488.5,-41 348.5,-41 348.5,0 488.5,0 488.5,-41"/>
<text text-anchor="start" x="356.5" y="-29" font-family="Helvetica,sans-Serif" font-size="10.00">projects/aducm3029</text>
<text text-anchor="start" x="356.5" y="-18" font-family="Helvetica,sans-Serif" font-size="10.00">_flash_demo/src/platform</text>
<text text-anchor="middle" x="418.5" y="-7" font-family="Helvetica,sans-Serif" font-size="10.00">/aducm3029/main.c</text>
</a>
</g>
</g>
<!-- Node8&#45;&gt;Node9 -->
<g id="edge8_Node000008_Node000009" class="edge">
<title>Node8&#45;&gt;Node9</title>
<g id="a_edge8_Node000008_Node000009"><a xlink:title=" ">
<path fill="none" stroke="#63b8ff" d="M628.14,-75.35C584.18,-64.05 530.63,-50.3 488.67,-39.52"/>
<polygon fill="#63b8ff" stroke="#63b8ff" points="627.39,-78.77 637.95,-77.86 629.13,-71.99 627.39,-78.77"/>
</a>
</g>
</g>
<!-- Node11 -->
<g id="Node000011" class="node">
<title>Node11</title>
<g id="a_Node000011"><a xlink:href="adxrs290-pmdz_2src_2platform_2aducm3029_2main_8c.html" target="_top" xlink:title="Main file for STM32 platform of eval&#45;adxrs290&#45;pmdz project.">
<polygon fill="white" stroke="#666666" points="646,-41 507,-41 507,0 646,0 646,-41"/>
<text text-anchor="start" x="515" y="-29" font-family="Helvetica,sans-Serif" font-size="10.00">projects/adxrs290&#45;pmdz</text>
<text text-anchor="start" x="515" y="-18" font-family="Helvetica,sans-Serif" font-size="10.00">/src/platform/aducm3029</text>
<text text-anchor="middle" x="576.5" y="-7" font-family="Helvetica,sans-Serif" font-size="10.00">/main.c</text>
</a>
</g>
</g>
<!-- Node10&#45;&gt;Node11 -->
<g id="edge10_Node000010_Node000011" class="edge">
<title>Node10&#45;&gt;Node11</title>
<g id="a_edge10_Node000010_Node000011"><a xlink:title=" ">
<path fill="none" stroke="#63b8ff" d="M791.06,-76.23C745.82,-64.69 689.69,-50.37 646.18,-39.28"/>
<polygon fill="#63b8ff" stroke="#63b8ff" points="790.27,-79.65 800.83,-78.73 792,-72.86 790.27,-79.65"/>
</a>
</g>
</g>
<!-- Node12 -->
<g id="Node000012" class="node">
<title>Node12</title>
<g id="a_Node000012"><a xlink:href="adxrs290-pmdz_2src_2platform_2aducm3029_2parameters_8c.html" target="_top" xlink:title="Definition of STM32 platform data used by eval&#45;adxrs290&#45;pmdz project.">
<polygon fill="white" stroke="#666666" points="803,-41 664,-41 664,0 803,0 803,-41"/>
<text text-anchor="start" x="672" y="-29" font-family="Helvetica,sans-Serif" font-size="10.00">projects/adxrs290&#45;pmdz</text>
<text text-anchor="start" x="672" y="-18" font-family="Helvetica,sans-Serif" font-size="10.00">/src/platform/aducm3029</text>
<text text-anchor="middle" x="733.5" y="-7" font-family="Helvetica,sans-Serif" font-size="10.00">/parameters.c</text>
</a>
</g>
</g>
<!-- Node10&#45;&gt;Node12 -->
<g id="edge11_Node000010_Node000012" class="edge">
<title>Node10&#45;&gt;Node12</title>
<g id="a_edge11_Node000010_Node000012"><a xlink:title=" ">
<path fill="none" stroke="#63b8ff" d="M825.85,-72.06C807.57,-62.05 786.7,-50.63 769.43,-41.17"/>
<polygon fill="#63b8ff" stroke="#63b8ff" points="824.41,-75.26 834.86,-76.99 827.77,-69.12 824.41,-75.26"/>
</a>
</g>
</g>
<!-- Node14 -->
<g id="Node000014" class="node">
<title>Node14</title>
<g id="a_Node000014"><a xlink:href="cn0531_2src_2platform_2aducm3029_2main_8c.html" target="_top" xlink:title="Main file for ADuCM3029 platform of cn0531 project.">
<polygon fill="white" stroke="#666666" points="943.5,-41 821.5,-41 821.5,0 943.5,0 943.5,-41"/>
<text text-anchor="start" x="829.5" y="-29" font-family="Helvetica,sans-Serif" font-size="10.00">projects/cn0531/src</text>
<text text-anchor="start" x="829.5" y="-18" font-family="Helvetica,sans-Serif" font-size="10.00">/platform/aducm3029</text>
<text text-anchor="middle" x="882.5" y="-7" font-family="Helvetica,sans-Serif" font-size="10.00">/main.c</text>
</a>
</g>
</g>
<!-- Node13&#45;&gt;Node14 -->
<g id="edge13_Node000013_Node000014" class="edge">
<title>Node13&#45;&gt;Node14</title>
<g id="a_edge13_Node000013_Node000014"><a xlink:title=" ">
<path fill="none" stroke="#63b8ff" d="M974.85,-72.06C956.57,-62.05 935.7,-50.63 918.43,-41.17"/>
<polygon fill="#63b8ff" stroke="#63b8ff" points="973.41,-75.26 983.86,-76.99 976.77,-69.12 973.41,-75.26"/>
</a>
</g>
</g>
<!-- Node15 -->
<g id="Node000015" class="node">
<title>Node15</title>
<g id="a_Node000015"><a xlink:href="cn0531_2src_2platform_2aducm3029_2parameters_8c.html" target="_top" xlink:title="Definition of ADuCM3029 platform data used by cn0531 project.">
<polygon fill="white" stroke="#666666" points="1083.5,-41 961.5,-41 961.5,0 1083.5,0 1083.5,-41"/>
<text text-anchor="start" x="969.5" y="-29" font-family="Helvetica,sans-Serif" font-size="10.00">projects/cn0531/src</text>
<text text-anchor="start" x="969.5" y="-18" font-family="Helvetica,sans-Serif" font-size="10.00">/platform/aducm3029</text>
<text text-anchor="middle" x="1022.5" y="-7" font-family="Helvetica,sans-Serif" font-size="10.00">/parameters.c</text>
</a>
</g>
</g>
<!-- Node13&#45;&gt;Node15 -->
<g id="edge14_Node000013_Node000015" class="edge">
<title>Node13&#45;&gt;Node15</title>
<g id="a_edge14_Node000013_Node000015"><a xlink:title=" ">
<path fill="none" stroke="#63b8ff" d="M1020.69,-66.69C1021.04,-58.08 1021.4,-48.9 1021.72,-41.07"/>
<polygon fill="#63b8ff" stroke="#63b8ff" points="1017.19,-66.66 1020.29,-76.79 1024.19,-66.94 1017.19,-66.66"/>
</a>
</g>
</g>
<!-- Node18 -->
<g id="Node000018" class="node">
<title>Node18</title>
<g id="a_Node000018"><a xlink:href="cn0565_2src_2platform_2aducm3029_2main_8c.html" target="_top" xlink:title="Main file for ADuCM3029 platform of cn0565 project.">
<polygon fill="white" stroke="#666666" points="1223.5,-41 1101.5,-41 1101.5,0 1223.5,0 1223.5,-41"/>
<text text-anchor="start" x="1109.5" y="-29" font-family="Helvetica,sans-Serif" font-size="10.00">projects/cn0565/src</text>
<text text-anchor="start" x="1109.5" y="-18" font-family="Helvetica,sans-Serif" font-size="10.00">/platform/aducm3029</text>
<text text-anchor="middle" x="1162.5" y="-7" font-family="Helvetica,sans-Serif" font-size="10.00">/main.c</text>
</a>
</g>
</g>
<!-- Node17&#45;&gt;Node18 -->
<g id="edge17_Node000017_Node000018" class="edge">
<title>Node17&#45;&gt;Node18</title>
<g id="a_edge17_Node000017_Node000018"><a xlink:title=" ">
<path fill="none" stroke="#63b8ff" d="M1247.41,-71.64C1230.64,-61.74 1211.6,-50.5 1195.81,-41.17"/>
<polygon fill="#63b8ff" stroke="#63b8ff" points="1246.07,-74.92 1256.46,-76.99 1249.63,-68.89 1246.07,-74.92"/>
</a>
</g>
</g>
<!-- Node19 -->
<g id="Node000019" class="node">
<title>Node19</title>
<g id="a_Node000019"><a xlink:href="cn0565_2src_2platform_2aducm3029_2parameters_8c.html" target="_top" xlink:title="Definition of ADuCM3029 platform data used by cn0565 project.">
<polygon fill="white" stroke="#666666" points="1363.5,-41 1241.5,-41 1241.5,0 1363.5,0 1363.5,-41"/>
<text text-anchor="start" x="1249.5" y="-29" font-family="Helvetica,sans-Serif" font-size="10.00">projects/cn0565/src</text>
<text text-anchor="start" x="1249.5" y="-18" font-family="Helvetica,sans-Serif" font-size="10.00">/platform/aducm3029</text>
<text text-anchor="middle" x="1302.5" y="-7" font-family="Helvetica,sans-Serif" font-size="10.00">/parameters.c</text>
</a>
</g>
</g>
<!-- Node17&#45;&gt;Node19 -->
<g id="edge18_Node000017_Node000019" class="edge">
<title>Node17&#45;&gt;Node19</title>
<g id="a_edge18_Node000017_Node000019"><a xlink:title=" ">
<path fill="none" stroke="#63b8ff" d="M1294.67,-66.69C1296.16,-58.08 1297.75,-48.9 1299.11,-41.07"/>
<polygon fill="#63b8ff" stroke="#63b8ff" points="1291.17,-66.34 1292.92,-76.79 1298.07,-67.54 1291.17,-66.34"/>
</a>
</g>
</g>
<!-- Node21 -->
<g id="Node000021" class="node">
<title>Node21</title>
<g id="a_Node000021"><a xlink:href="demo__esp_2src_2platform_2aducm3029_2main_8c.html" target="_top" xlink:title="Main file for aducm3029 platform of demo_esp project.">
<polygon fill="white" stroke="#666666" points="1539.5,-35.5 1381.5,-35.5 1381.5,-5.5 1539.5,-5.5 1539.5,-35.5"/>
<text text-anchor="start" x="1389.5" y="-23.5" font-family="Helvetica,sans-Serif" font-size="10.00">projects/demo_esp/src</text>
<text text-anchor="middle" x="1460.5" y="-12.5" font-family="Helvetica,sans-Serif" font-size="10.00">/platform/aducm3029/main.c</text>
</a>
</g>
</g>
<!-- Node20&#45;&gt;Node21 -->
<g id="edge20_Node000020_Node000021" class="edge">
<title>Node20&#45;&gt;Node21</title>
<g id="a_edge20_Node000020_Node000021"><a xlink:title=" ">
<path fill="none" stroke="#63b8ff" d="M1462.52,-72.04C1462.04,-59.95 1461.47,-45.79 1461.06,-35.54"/>
<polygon fill="#63b8ff" stroke="#63b8ff" points="1459.04,-72.54 1462.94,-82.39 1466.03,-72.26 1459.04,-72.54"/>
</a>
</g>
</g>
<!-- Node22 -->
<g id="Node000022" class="node">
<title>Node22</title>
<g id="a_Node000022"><a xlink:href="demo__esp_2src_2platform_2aducm3029_2parameters_8c.html" target="_top" xlink:title="Definition of aducm3029 platform data used by demo_esp.">
<polygon fill="white" stroke="#666666" points="1747,-35.5 1558,-35.5 1558,-5.5 1747,-5.5 1747,-35.5"/>
<text text-anchor="start" x="1566" y="-23.5" font-family="Helvetica,sans-Serif" font-size="10.00">projects/demo_esp/src</text>
<text text-anchor="middle" x="1652.5" y="-12.5" font-family="Helvetica,sans-Serif" font-size="10.00">/platform/aducm3029/parameters.c</text>
</a>
</g>
</g>
<!-- Node20&#45;&gt;Node22 -->
<g id="edge21_Node000020_Node000022" class="edge">
<title>Node20&#45;&gt;Node22</title>
<g id="a_edge21_Node000020_Node000022"><a xlink:title=" ">
<path fill="none" stroke="#63b8ff" d="M1508.54,-78.63C1541.78,-65.43 1586.4,-47.73 1617.11,-35.54"/>
<polygon fill="#63b8ff" stroke="#63b8ff" points="1507.05,-75.45 1499.05,-82.39 1509.64,-81.96 1507.05,-75.45"/>
</a>
</g>
</g>
<!-- Node24 -->
<g id="Node000024" class="node">
<title>Node24</title>
<g id="a_Node000024"><a xlink:href="eval-adxl355-pmdz_2src_2platform_2aducm3029_2main_8c.html" target="_top" xlink:title="Main file for aducm3029 platform of eval&#45;adxl355&#45;pmdz project.">
<polygon fill="white" stroke="#666666" points="1935.5,-41 1765.5,-41 1765.5,0 1935.5,0 1935.5,-41"/>
<text text-anchor="start" x="1773.5" y="-29" font-family="Helvetica,sans-Serif" font-size="10.00">projects/eval&#45;adxl355</text>
<text text-anchor="start" x="1773.5" y="-18" font-family="Helvetica,sans-Serif" font-size="10.00">&#45;pmdz/src/platform/aducm3029</text>
<text text-anchor="middle" x="1850.5" y="-7" font-family="Helvetica,sans-Serif" font-size="10.00">/main.c</text>
</a>
</g>
</g>
<!-- Node23&#45;&gt;Node24 -->
<g id="edge23_Node000023_Node000024" class="edge">
<title>Node23&#45;&gt;Node24</title>
<g id="a_edge23_Node000023_Node000024"><a xlink:title=" ">
<path fill="none" stroke="#63b8ff" d="M1789.28,-70.35C1801.33,-60.73 1814.76,-50.01 1825.97,-41.07"/>
<polygon fill="#63b8ff" stroke="#63b8ff" points="1786.83,-67.82 1781.2,-76.79 1791.2,-73.29 1786.83,-67.82"/>
</a>
</g>
</g>
<!-- Node25 -->
<g id="Node000025" class="node">
<title>Node25</title>
<g id="a_Node000025"><a xlink:href="eval-adxl355-pmdz_2src_2platform_2aducm3029_2parameters_8c.html" target="_top" xlink:title="Definition of aducm3029 platform data used by eval&#45;adxl355&#45;pmdz project.">
<polygon fill="white" stroke="#666666" points="2123.5,-41 1953.5,-41 1953.5,0 2123.5,0 2123.5,-41"/>
<text text-anchor="start" x="1961.5" y="-29" font-family="Helvetica,sans-Serif" font-size="10.00">projects/eval&#45;adxl355</text>
<text text-anchor="start" x="1961.5" y="-18" font-family="Helvetica,sans-Serif" font-size="10.00">&#45;pmdz/src/platform/aducm3029</text>
<text text-anchor="middle" x="2038.5" y="-7" font-family="Helvetica,sans-Serif" font-size="10.00">/parameters.c</text>
</a>
</g>
</g>
<!-- Node23&#45;&gt;Node25 -->
<g id="edge24_Node000023_Node000025" class="edge">
<title>Node23&#45;&gt;Node25</title>
<g id="a_edge24_Node000023_Node000025"><a xlink:title=" ">
<path fill="none" stroke="#63b8ff" d="M1839.54,-74.42C1879.32,-63.84 1926.56,-51.27 1965.02,-41.04"/>
<polygon fill="#63b8ff" stroke="#63b8ff" points="1838.62,-71.04 1829.86,-76.99 1840.42,-77.8 1838.62,-71.04"/>
</a>
</g>
</g>
<!-- Node27 -->
<g id="Node000027" class="node">
<title>Node27</title>
<g id="a_Node000027"><a xlink:href="eval-ltc4306_2src_2platform_2aducm3029_2main_8c.html" target="_top" xlink:title="Main file for aducm3029 platform of eval&#45;ltc4306&#45;pmdz project.">
<polygon fill="white" stroke="#666666" points="2281,-41 2142,-41 2142,0 2281,0 2281,-41"/>
<text text-anchor="start" x="2150" y="-29" font-family="Helvetica,sans-Serif" font-size="10.00">projects/eval&#45;ltc4306</text>
<text text-anchor="start" x="2150" y="-18" font-family="Helvetica,sans-Serif" font-size="10.00">/src/platform/aducm3029</text>
<text text-anchor="middle" x="2211.5" y="-7" font-family="Helvetica,sans-Serif" font-size="10.00">/main.c</text>
</a>
</g>
</g>
<!-- Node26&#45;&gt;Node27 -->
<g id="edge26_Node000026_Node000027" class="edge">
<title>Node26&#45;&gt;Node27</title>
<g id="a_edge26_Node000026_Node000027"><a xlink:title=" ">
<path fill="none" stroke="#63b8ff" d="M2009.06,-75.34C2050.78,-64.24 2101.42,-50.78 2141.62,-40.09"/>
<polygon fill="#63b8ff" stroke="#63b8ff" points="2007.97,-72.01 1999.21,-77.96 2009.77,-78.77 2007.97,-72.01"/>
</a>
</g>
</g>
<!-- Node29 -->
<g id="Node000029" class="node">
<title>Node29</title>
<g id="a_Node000029"><a xlink:href="iio__adpd1080_2src_2platform_2aducm3029_2main_8c.html" target="_top" xlink:title="Main file for ADuCM3029 platform of iio_adpd1080 project.">
<polygon fill="white" stroke="#666666" points="2438,-41 2299,-41 2299,0 2438,0 2438,-41"/>
<text text-anchor="start" x="2307" y="-29" font-family="Helvetica,sans-Serif" font-size="10.00">projects/iio_adpd1080</text>
<text text-anchor="start" x="2307" y="-18" font-family="Helvetica,sans-Serif" font-size="10.00">/src/platform/aducm3029</text>
<text text-anchor="middle" x="2368.5" y="-7" font-family="Helvetica,sans-Serif" font-size="10.00">/main.c</text>
</a>
</g>
</g>
<!-- Node28&#45;&gt;Node29 -->
<g id="edge28_Node000028_Node000029" class="edge">
<title>Node28&#45;&gt;Node29</title>
<g id="a_edge28_Node000028_Node000029"><a xlink:title=" ">
<path fill="none" stroke="#63b8ff" d="M2166.06,-75.34C2207.78,-64.24 2258.42,-50.78 2298.62,-40.09"/>
<polygon fill="#63b8ff" stroke="#63b8ff" points="2164.97,-72.01 2156.21,-77.96 2166.77,-78.77 2164.97,-72.01"/>
</a>
</g>
</g>
<!-- Node32 -->
<g id="Node000032" class="node">
<title>Node32</title>
<g id="a_Node000032"><a xlink:href="iio__demo_2src_2platform_2aducm3029_2parameters_8c.html" target="_top" xlink:title="Definition of aducm3029 platform data used by iio_demo project.">
<polygon fill="white" stroke="#666666" points="2645,-35.5 2456,-35.5 2456,-5.5 2645,-5.5 2645,-35.5"/>
<text text-anchor="start" x="2464" y="-23.5" font-family="Helvetica,sans-Serif" font-size="10.00">projects/iio_demo/src</text>
<text text-anchor="middle" x="2550.5" y="-12.5" font-family="Helvetica,sans-Serif" font-size="10.00">/platform/aducm3029/parameters.c</text>
</a>
</g>
</g>
<!-- Node31&#45;&gt;Node32 -->
<g id="edge31_Node000031_Node000032" class="edge">
<title>Node31&#45;&gt;Node32</title>
<g id="a_edge31_Node000031_Node000032"><a xlink:title=" ">
<path fill="none" stroke="#63b8ff" d="M2538.28,-72.41C2541.2,-60.24 2544.64,-45.9 2547.13,-35.54"/>
<polygon fill="#63b8ff" stroke="#63b8ff" points="2534.82,-71.85 2535.89,-82.39 2541.62,-73.49 2534.82,-71.85"/>
</a>
</g>
</g>
</g>
</svg>
