<?xml version="1.0" encoding="UTF-8" standalone="no"?>
<!DOCTYPE svg PUBLIC "-//W3C//DTD SVG 1.1//EN"
 "http://www.w3.org/Graphics/SVG/1.1/DTD/svg11.dtd">
<!-- Generated by graphviz version 2.43.0 (0)
 -->
<!-- Title: drivers/platform/aducm3029/aducm3029_spi.h Pages: 1 -->
<!--zoomable 192 -->

<svg id="main" version="1.1" xmlns="http://www.w3.org/2000/svg" xmlns:xlink="http://www.w3.org/1999/xlink" xml:space="preserve" onload="init(evt)">

<style type="text/css"><![CDATA[
.node, .edge {opacity: 0.7;}
.node.selected, .edge.selected {opacity: 1;}
.edge:hover path { stroke: red; }
.edge:hover polygon { stroke: red; fill: red; }
]]></style>

<defs>
  <circle id="rim" cx="0" cy="0" r="7"/>
  <circle id="rim2" cx="0" cy="0" r="3.5"/>
  <g id="zoomPlus">
    <use xlink:href="#rim" fill="#404040"><set attributeName="fill" to="#808080" begin="zoomplus.mouseover" end="zoomplus.mouseout"/></use>
    <path d="M-4,0h8M0,-4v8" fill="none" stroke="white" stroke-width="1.5" pointer-events="none"/>
  </g>
  <g id="zoomMin">
    <use xlink:href="#rim" fill="#404040"><set attributeName="fill" to="#808080" begin="zoomminus.mouseover" end="zoomminus.mouseout"/></use>
    <path d="M-4,0h8" fill="none" stroke="white" stroke-width="1.5" pointer-events="none"/>
  </g>
  <g id="arrowUp" transform="translate(30 24)">
    <use xlink:href="#rim"/>
    <path pointer-events="none" fill="none" stroke="white" stroke-width="1.5" d="M0,-3.0v7 M-2.5,-0.5L0,-3.0L2.5,-0.5"/>
  </g>
  <g id="arrowRight" transform="rotate(90) translate(36 -43)">
    <use xlink:href="#rim"/>
    <path pointer-events="none" fill="none" stroke="white" stroke-width="1.5" d="M0,-3.0v7 M-2.5,-0.5L0,-3.0L2.5,-0.5"/>
  </g>
  <g id="arrowDown" transform="rotate(180) translate(-30 -48)">
    <use xlink:href="#rim"/>
    <path pointer-events="none" fill="none" stroke="white" stroke-width="1.5" d="M0,-3.0v7 M-2.5,-0.5L0,-3.0L2.5,-0.5"/>
  </g>
  <g id="arrowLeft" transform="rotate(270) translate(-36 17)">
    <use xlink:href="#rim"/>
    <path pointer-events="none" fill="none" stroke="white" stroke-width="1.5" d="M0,-3.0v7 M-2.5,-0.5L0,-3.0L2.5,-0.5"/>
  </g>
  <g id="resetDef">
    <use xlink:href="#rim2" fill="#404040"><set attributeName="fill" to="#808080" begin="reset.mouseover" end="reset.mouseout"/></use>
  </g>
</defs>
<script type="application/ecmascript">
var viewWidth = 1555;
var viewHeight = 192;
var sectionId = 'dynsection-1';
</script>
<script type="application/ecmascript" xlink:href="svg.min.js"/>
<svg id="graph" class="graph">
<g id="viewport">
<title>drivers/platform/aducm3029/aducm3029_spi.h</title>
<!-- Node1 -->
<g id="Node000001" class="node">
<title>Node1</title>
<g id="a_Node000001"><a xlink:title="ADuCM302x specific header for SPI driver.">
<polygon fill="#999999" stroke="#666666" points="692,-184 537,-184 537,-154 692,-154 692,-184"/>
<text text-anchor="start" x="545" y="-172" font-family="Helvetica,sans-Serif" font-size="10.00">drivers/platform/aducm3029</text>
<text text-anchor="middle" x="614.5" y="-161" font-family="Helvetica,sans-Serif" font-size="10.00">/aducm3029_spi.h</text>
</a>
</g>
</g>
<!-- Node2 -->
<g id="Node000002" class="node">
<title>Node2</title>
<g id="a_Node000002"><a xlink:href="aducm3029__spi_8c.html" target="_top" xlink:title="Implementation of SPI driver for ADuCM302x.">
<polygon fill="white" stroke="#666666" points="218,-112.5 63,-112.5 63,-82.5 218,-82.5 218,-112.5"/>
<text text-anchor="start" x="71" y="-100.5" font-family="Helvetica,sans-Serif" font-size="10.00">drivers/platform/aducm3029</text>
<text text-anchor="middle" x="140.5" y="-89.5" font-family="Helvetica,sans-Serif" font-size="10.00">/aducm3029_spi.c</text>
</a>
</g>
</g>
<!-- Node1&#45;&gt;Node2 -->
<g id="edge1_Node000001_Node000002" class="edge">
<title>Node1&#45;&gt;Node2</title>
<g id="a_edge1_Node000001_Node000002"><a xlink:title=" ">
<path fill="none" stroke="#63b8ff" d="M526.5,-159.07C447.62,-150.49 328.9,-136.17 226.5,-118 217.61,-116.42 208.24,-114.54 199.1,-112.57"/>
<polygon fill="#63b8ff" stroke="#63b8ff" points="526.56,-162.59 536.87,-160.19 527.31,-155.63 526.56,-162.59"/>
</a>
</g>
</g>
<!-- Node3 -->
<g id="Node000003" class="node">
<title>Node3</title>
<g id="a_Node000003"><a xlink:href="ada4250__ardz_2src_2platform_2aducm3029_2parameters_8h.html" target="_top" xlink:title="Definitions specific to ADuCM3029 platform used by ada4250_ardz project.">
<polygon fill="white" stroke="#666666" points="375,-118 236,-118 236,-77 375,-77 375,-118"/>
<text text-anchor="start" x="244" y="-106" font-family="Helvetica,sans-Serif" font-size="10.00">projects/ada4250_ardz</text>
<text text-anchor="start" x="244" y="-95" font-family="Helvetica,sans-Serif" font-size="10.00">/src/platform/aducm3029</text>
<text text-anchor="middle" x="305.5" y="-84" font-family="Helvetica,sans-Serif" font-size="10.00">/parameters.h</text>
</a>
</g>
</g>
<!-- Node1&#45;&gt;Node3 -->
<g id="edge2_Node000001_Node000003" class="edge">
<title>Node1&#45;&gt;Node3</title>
<g id="a_edge2_Node000001_Node000003"><a xlink:title=" ">
<path fill="none" stroke="#63b8ff" d="M542.13,-151.72C491.76,-140.39 424.98,-125.37 375.21,-114.18"/>
<polygon fill="#63b8ff" stroke="#63b8ff" points="541.44,-155.16 551.97,-153.94 542.98,-148.33 541.44,-155.16"/>
</a>
</g>
</g>
<!-- Node6 -->
<g id="Node000006" class="node">
<title>Node6</title>
<g id="a_Node000006"><a xlink:href="adxrs290-pmdz_2src_2platform_2aducm3029_2parameters_8h.html" target="_top" xlink:title="Definitions specific to STM32 platform used by eval&#45;adxrs290&#45;pmdz project.">
<polygon fill="white" stroke="#666666" points="610,-118 471,-118 471,-77 610,-77 610,-118"/>
<text text-anchor="start" x="479" y="-106" font-family="Helvetica,sans-Serif" font-size="10.00">projects/adxrs290&#45;pmdz</text>
<text text-anchor="start" x="479" y="-95" font-family="Helvetica,sans-Serif" font-size="10.00">/src/platform/aducm3029</text>
<text text-anchor="middle" x="540.5" y="-84" font-family="Helvetica,sans-Serif" font-size="10.00">/parameters.h</text>
</a>
</g>
</g>
<!-- Node1&#45;&gt;Node6 -->
<g id="edge5_Node000001_Node000006" class="edge">
<title>Node1&#45;&gt;Node6</title>
<g id="a_edge5_Node000001_Node000006"><a xlink:title=" ">
<path fill="none" stroke="#63b8ff" d="M592.1,-146.96C582.32,-137.78 570.93,-127.08 561.34,-118.07"/>
<polygon fill="#63b8ff" stroke="#63b8ff" points="589.84,-149.64 599.52,-153.94 594.63,-144.54 589.84,-149.64"/>
</a>
</g>
</g>
<!-- Node9 -->
<g id="Node000009" class="node">
<title>Node9</title>
<g id="a_Node000009"><a xlink:href="cn0531_2src_2platform_2aducm3029_2parameters_8h.html" target="_top" xlink:title="Definitions specific to ADuCM3029 platform used by cn0531 project.">
<polygon fill="white" stroke="#666666" points="750.5,-118 628.5,-118 628.5,-77 750.5,-77 750.5,-118"/>
<text text-anchor="start" x="636.5" y="-106" font-family="Helvetica,sans-Serif" font-size="10.00">projects/cn0531/src</text>
<text text-anchor="start" x="636.5" y="-95" font-family="Helvetica,sans-Serif" font-size="10.00">/platform/aducm3029</text>
<text text-anchor="middle" x="689.5" y="-84" font-family="Helvetica,sans-Serif" font-size="10.00">/parameters.h</text>
</a>
</g>
</g>
<!-- Node1&#45;&gt;Node9 -->
<g id="edge8_Node000001_Node000009" class="edge">
<title>Node1&#45;&gt;Node9</title>
<g id="a_edge8_Node000001_Node000009"><a xlink:title=" ">
<path fill="none" stroke="#63b8ff" d="M637.2,-146.96C647.11,-137.78 658.66,-127.08 668.38,-118.07"/>
<polygon fill="#63b8ff" stroke="#63b8ff" points="634.63,-144.57 629.68,-153.94 639.39,-149.71 634.63,-144.57"/>
</a>
</g>
</g>
<!-- Node12 -->
<g id="Node000012" class="node">
<title>Node12</title>
<g id="a_Node000012"><a xlink:href="cn0565_2src_2platform_2aducm3029_2parameters_8h.html" target="_top" xlink:title="Definitions specific to ADuCM3029 platform used by cn0565 project.">
<polygon fill="white" stroke="#666666" points="1030.5,-118 908.5,-118 908.5,-77 1030.5,-77 1030.5,-118"/>
<text text-anchor="start" x="916.5" y="-106" font-family="Helvetica,sans-Serif" font-size="10.00">projects/cn0565/src</text>
<text text-anchor="start" x="916.5" y="-95" font-family="Helvetica,sans-Serif" font-size="10.00">/platform/aducm3029</text>
<text text-anchor="middle" x="969.5" y="-84" font-family="Helvetica,sans-Serif" font-size="10.00">/parameters.h</text>
</a>
</g>
</g>
<!-- Node1&#45;&gt;Node12 -->
<g id="edge11_Node000001_Node000012" class="edge">
<title>Node1&#45;&gt;Node12</title>
<g id="a_edge11_Node000001_Node000012"><a xlink:title=" ">
<path fill="none" stroke="#63b8ff" d="M696.5,-151.95C761.16,-139.29 849.89,-121.92 908.41,-110.46"/>
<polygon fill="#63b8ff" stroke="#63b8ff" points="695.48,-148.58 686.34,-153.94 696.83,-155.45 695.48,-148.58"/>
</a>
</g>
</g>
<!-- Node15 -->
<g id="Node000015" class="node">
<title>Node15</title>
<g id="a_Node000015"><a xlink:href="eval-adxl355-pmdz_2src_2platform_2aducm3029_2parameters_8h.html" target="_top" xlink:title="Definitions specific to aducm3029 platform used by eval&#45;adxl355&#45;pmdz project.">
<polygon fill="white" stroke="#666666" points="1358.5,-118 1188.5,-118 1188.5,-77 1358.5,-77 1358.5,-118"/>
<text text-anchor="start" x="1196.5" y="-106" font-family="Helvetica,sans-Serif" font-size="10.00">projects/eval&#45;adxl355</text>
<text text-anchor="start" x="1196.5" y="-95" font-family="Helvetica,sans-Serif" font-size="10.00">&#45;pmdz/src/platform/aducm3029</text>
<text text-anchor="middle" x="1273.5" y="-84" font-family="Helvetica,sans-Serif" font-size="10.00">/parameters.h</text>
</a>
</g>
</g>
<!-- Node1&#45;&gt;Node15 -->
<g id="edge14_Node000001_Node000015" class="edge">
<title>Node1&#45;&gt;Node15</title>
<g id="a_edge14_Node000001_Node000015"><a xlink:title=" ">
<path fill="none" stroke="#63b8ff" d="M702.11,-158.76C829.13,-145.36 1062.92,-120.71 1188.47,-107.47"/>
<polygon fill="#63b8ff" stroke="#63b8ff" points="701.61,-155.29 692.03,-159.82 702.35,-162.25 701.61,-155.29"/>
</a>
</g>
</g>
<!-- Node4 -->
<g id="Node000004" class="node">
<title>Node4</title>
<g id="a_Node000004"><a xlink:href="ada4250__ardz_2src_2platform_2aducm3029_2main_8c.html" target="_top" xlink:title="Main file for ADuCM3029 platform of ada4250_ardz project.">
<polygon fill="white" stroke="#666666" points="139,-41 0,-41 0,0 139,0 139,-41"/>
<text text-anchor="start" x="8" y="-29" font-family="Helvetica,sans-Serif" font-size="10.00">projects/ada4250_ardz</text>
<text text-anchor="start" x="8" y="-18" font-family="Helvetica,sans-Serif" font-size="10.00">/src/platform/aducm3029</text>
<text text-anchor="middle" x="69.5" y="-7" font-family="Helvetica,sans-Serif" font-size="10.00">/main.c</text>
</a>
</g>
</g>
<!-- Node3&#45;&gt;Node4 -->
<g id="edge3_Node000003_Node000004" class="edge">
<title>Node3&#45;&gt;Node4</title>
<g id="a_edge3_Node000003_Node000004"><a xlink:title=" ">
<path fill="none" stroke="#63b8ff" d="M234.53,-73.94C201.55,-63.46 162.7,-51.12 130.99,-41.04"/>
<polygon fill="#63b8ff" stroke="#63b8ff" points="233.52,-77.3 244.11,-76.99 235.64,-70.63 233.52,-77.3"/>
</a>
</g>
</g>
<!-- Node5 -->
<g id="Node000005" class="node">
<title>Node5</title>
<g id="a_Node000005"><a xlink:href="ada4250__ardz_2src_2platform_2aducm3029_2parameters_8c.html" target="_top" xlink:title="Definition of ADuCM3029 platform data used by ada4250_ardz project.">
<polygon fill="white" stroke="#666666" points="296,-41 157,-41 157,0 296,0 296,-41"/>
<text text-anchor="start" x="165" y="-29" font-family="Helvetica,sans-Serif" font-size="10.00">projects/ada4250_ardz</text>
<text text-anchor="start" x="165" y="-18" font-family="Helvetica,sans-Serif" font-size="10.00">/src/platform/aducm3029</text>
<text text-anchor="middle" x="226.5" y="-7" font-family="Helvetica,sans-Serif" font-size="10.00">/parameters.c</text>
</a>
</g>
</g>
<!-- Node3&#45;&gt;Node5 -->
<g id="edge4_Node000003_Node000005" class="edge">
<title>Node3&#45;&gt;Node5</title>
<g id="a_edge4_Node000003_Node000005"><a xlink:title=" ">
<path fill="none" stroke="#63b8ff" d="M277.37,-69.79C267.39,-60.32 256.35,-49.84 247.12,-41.07"/>
<polygon fill="#63b8ff" stroke="#63b8ff" points="275.08,-72.45 284.74,-76.79 279.9,-67.37 275.08,-72.45"/>
</a>
</g>
</g>
<!-- Node7 -->
<g id="Node000007" class="node">
<title>Node7</title>
<g id="a_Node000007"><a xlink:href="adxrs290-pmdz_2src_2platform_2aducm3029_2main_8c.html" target="_top" xlink:title="Main file for STM32 platform of eval&#45;adxrs290&#45;pmdz project.">
<polygon fill="white" stroke="#666666" points="453,-41 314,-41 314,0 453,0 453,-41"/>
<text text-anchor="start" x="322" y="-29" font-family="Helvetica,sans-Serif" font-size="10.00">projects/adxrs290&#45;pmdz</text>
<text text-anchor="start" x="322" y="-18" font-family="Helvetica,sans-Serif" font-size="10.00">/src/platform/aducm3029</text>
<text text-anchor="middle" x="383.5" y="-7" font-family="Helvetica,sans-Serif" font-size="10.00">/main.c</text>
</a>
</g>
</g>
<!-- Node6&#45;&gt;Node7 -->
<g id="edge6_Node000006_Node000007" class="edge">
<title>Node6&#45;&gt;Node7</title>
<g id="a_edge6_Node000006_Node000007"><a xlink:title=" ">
<path fill="none" stroke="#63b8ff" d="M490.44,-72.59C469.13,-62.41 444.6,-50.69 424.41,-41.04"/>
<polygon fill="#63b8ff" stroke="#63b8ff" points="489.13,-75.84 499.66,-76.99 492.15,-69.52 489.13,-75.84"/>
</a>
</g>
</g>
<!-- Node8 -->
<g id="Node000008" class="node">
<title>Node8</title>
<g id="a_Node000008"><a xlink:href="adxrs290-pmdz_2src_2platform_2aducm3029_2parameters_8c.html" target="_top" xlink:title="Definition of STM32 platform data used by eval&#45;adxrs290&#45;pmdz project.">
<polygon fill="white" stroke="#666666" points="610,-41 471,-41 471,0 610,0 610,-41"/>
<text text-anchor="start" x="479" y="-29" font-family="Helvetica,sans-Serif" font-size="10.00">projects/adxrs290&#45;pmdz</text>
<text text-anchor="start" x="479" y="-18" font-family="Helvetica,sans-Serif" font-size="10.00">/src/platform/aducm3029</text>
<text text-anchor="middle" x="540.5" y="-7" font-family="Helvetica,sans-Serif" font-size="10.00">/parameters.c</text>
</a>
</g>
</g>
<!-- Node6&#45;&gt;Node8 -->
<g id="edge7_Node000006_Node000008" class="edge">
<title>Node6&#45;&gt;Node8</title>
<g id="a_edge7_Node000006_Node000008"><a xlink:title=" ">
<path fill="none" stroke="#63b8ff" d="M540.5,-66.69C540.5,-58.08 540.5,-48.9 540.5,-41.07"/>
<polygon fill="#63b8ff" stroke="#63b8ff" points="537,-66.79 540.5,-76.79 544,-66.79 537,-66.79"/>
</a>
</g>
</g>
<!-- Node10 -->
<g id="Node000010" class="node">
<title>Node10</title>
<g id="a_Node000010"><a xlink:href="cn0531_2src_2platform_2aducm3029_2main_8c.html" target="_top" xlink:title="Main file for ADuCM3029 platform of cn0531 project.">
<polygon fill="white" stroke="#666666" points="750.5,-41 628.5,-41 628.5,0 750.5,0 750.5,-41"/>
<text text-anchor="start" x="636.5" y="-29" font-family="Helvetica,sans-Serif" font-size="10.00">projects/cn0531/src</text>
<text text-anchor="start" x="636.5" y="-18" font-family="Helvetica,sans-Serif" font-size="10.00">/platform/aducm3029</text>
<text text-anchor="middle" x="689.5" y="-7" font-family="Helvetica,sans-Serif" font-size="10.00">/main.c</text>
</a>
</g>
</g>
<!-- Node9&#45;&gt;Node10 -->
<g id="edge9_Node000009_Node000010" class="edge">
<title>Node9&#45;&gt;Node10</title>
<g id="a_edge9_Node000009_Node000010"><a xlink:title=" ">
<path fill="none" stroke="#63b8ff" d="M689.5,-66.69C689.5,-58.08 689.5,-48.9 689.5,-41.07"/>
<polygon fill="#63b8ff" stroke="#63b8ff" points="686,-66.79 689.5,-76.79 693,-66.79 686,-66.79"/>
</a>
</g>
</g>
<!-- Node11 -->
<g id="Node000011" class="node">
<title>Node11</title>
<g id="a_Node000011"><a xlink:href="cn0531_2src_2platform_2aducm3029_2parameters_8c.html" target="_top" xlink:title="Definition of ADuCM3029 platform data used by cn0531 project.">
<polygon fill="white" stroke="#666666" points="890.5,-41 768.5,-41 768.5,0 890.5,0 890.5,-41"/>
<text text-anchor="start" x="776.5" y="-29" font-family="Helvetica,sans-Serif" font-size="10.00">projects/cn0531/src</text>
<text text-anchor="start" x="776.5" y="-18" font-family="Helvetica,sans-Serif" font-size="10.00">/platform/aducm3029</text>
<text text-anchor="middle" x="829.5" y="-7" font-family="Helvetica,sans-Serif" font-size="10.00">/parameters.c</text>
</a>
</g>
</g>
<!-- Node9&#45;&gt;Node11 -->
<g id="edge10_Node000009_Node000011" class="edge">
<title>Node9&#45;&gt;Node11</title>
<g id="a_edge10_Node000009_Node000011"><a xlink:title=" ">
<path fill="none" stroke="#63b8ff" d="M734.87,-72.19C753.61,-62.15 775.05,-50.67 792.78,-41.17"/>
<polygon fill="#63b8ff" stroke="#63b8ff" points="733.08,-69.18 725.92,-76.99 736.39,-75.35 733.08,-69.18"/>
</a>
</g>
</g>
<!-- Node13 -->
<g id="Node000013" class="node">
<title>Node13</title>
<g id="a_Node000013"><a xlink:href="cn0565_2src_2platform_2aducm3029_2main_8c.html" target="_top" xlink:title="Main file for ADuCM3029 platform of cn0565 project.">
<polygon fill="white" stroke="#666666" points="1030.5,-41 908.5,-41 908.5,0 1030.5,0 1030.5,-41"/>
<text text-anchor="start" x="916.5" y="-29" font-family="Helvetica,sans-Serif" font-size="10.00">projects/cn0565/src</text>
<text text-anchor="start" x="916.5" y="-18" font-family="Helvetica,sans-Serif" font-size="10.00">/platform/aducm3029</text>
<text text-anchor="middle" x="969.5" y="-7" font-family="Helvetica,sans-Serif" font-size="10.00">/main.c</text>
</a>
</g>
</g>
<!-- Node12&#45;&gt;Node13 -->
<g id="edge12_Node000012_Node000013" class="edge">
<title>Node12&#45;&gt;Node13</title>
<g id="a_edge12_Node000012_Node000013"><a xlink:title=" ">
<path fill="none" stroke="#63b8ff" d="M969.5,-66.69C969.5,-58.08 969.5,-48.9 969.5,-41.07"/>
<polygon fill="#63b8ff" stroke="#63b8ff" points="966,-66.79 969.5,-76.79 973,-66.79 966,-66.79"/>
</a>
</g>
</g>
<!-- Node14 -->
<g id="Node000014" class="node">
<title>Node14</title>
<g id="a_Node000014"><a xlink:href="cn0565_2src_2platform_2aducm3029_2parameters_8c.html" target="_top" xlink:title="Definition of ADuCM3029 platform data used by cn0565 project.">
<polygon fill="white" stroke="#666666" points="1170.5,-41 1048.5,-41 1048.5,0 1170.5,0 1170.5,-41"/>
<text text-anchor="start" x="1056.5" y="-29" font-family="Helvetica,sans-Serif" font-size="10.00">projects/cn0565/src</text>
<text text-anchor="start" x="1056.5" y="-18" font-family="Helvetica,sans-Serif" font-size="10.00">/platform/aducm3029</text>
<text text-anchor="middle" x="1109.5" y="-7" font-family="Helvetica,sans-Serif" font-size="10.00">/parameters.c</text>
</a>
</g>
</g>
<!-- Node12&#45;&gt;Node14 -->
<g id="edge13_Node000012_Node000014" class="edge">
<title>Node12&#45;&gt;Node14</title>
<g id="a_edge13_Node000012_Node000014"><a xlink:title=" ">
<path fill="none" stroke="#63b8ff" d="M1014.87,-72.19C1033.61,-62.15 1055.05,-50.67 1072.78,-41.17"/>
<polygon fill="#63b8ff" stroke="#63b8ff" points="1013.08,-69.18 1005.92,-76.99 1016.39,-75.35 1013.08,-69.18"/>
</a>
</g>
</g>
<!-- Node16 -->
<g id="Node000016" class="node">
<title>Node16</title>
<g id="a_Node000016"><a xlink:href="eval-adxl355-pmdz_2src_2platform_2aducm3029_2main_8c.html" target="_top" xlink:title="Main file for aducm3029 platform of eval&#45;adxl355&#45;pmdz project.">
<polygon fill="white" stroke="#666666" points="1358.5,-41 1188.5,-41 1188.5,0 1358.5,0 1358.5,-41"/>
<text text-anchor="start" x="1196.5" y="-29" font-family="Helvetica,sans-Serif" font-size="10.00">projects/eval&#45;adxl355</text>
<text text-anchor="start" x="1196.5" y="-18" font-family="Helvetica,sans-Serif" font-size="10.00">&#45;pmdz/src/platform/aducm3029</text>
<text text-anchor="middle" x="1273.5" y="-7" font-family="Helvetica,sans-Serif" font-size="10.00">/main.c</text>
</a>
</g>
</g>
<!-- Node15&#45;&gt;Node16 -->
<g id="edge15_Node000015_Node000016" class="edge">
<title>Node15&#45;&gt;Node16</title>
<g id="a_edge15_Node000015_Node000016"><a xlink:title=" ">
<path fill="none" stroke="#63b8ff" d="M1273.5,-66.69C1273.5,-58.08 1273.5,-48.9 1273.5,-41.07"/>
<polygon fill="#63b8ff" stroke="#63b8ff" points="1270,-66.79 1273.5,-76.79 1277,-66.79 1270,-66.79"/>
</a>
</g>
</g>
<!-- Node17 -->
<g id="Node000017" class="node">
<title>Node17</title>
<g id="a_Node000017"><a xlink:href="eval-adxl355-pmdz_2src_2platform_2aducm3029_2parameters_8c.html" target="_top" xlink:title="Definition of aducm3029 platform data used by eval&#45;adxl355&#45;pmdz project.">
<polygon fill="white" stroke="#666666" points="1546.5,-41 1376.5,-41 1376.5,0 1546.5,0 1546.5,-41"/>
<text text-anchor="start" x="1384.5" y="-29" font-family="Helvetica,sans-Serif" font-size="10.00">projects/eval&#45;adxl355</text>
<text text-anchor="start" x="1384.5" y="-18" font-family="Helvetica,sans-Serif" font-size="10.00">&#45;pmdz/src/platform/aducm3029</text>
<text text-anchor="middle" x="1461.5" y="-7" font-family="Helvetica,sans-Serif" font-size="10.00">/parameters.c</text>
</a>
</g>
</g>
<!-- Node15&#45;&gt;Node17 -->
<g id="edge16_Node000015_Node000017" class="edge">
<title>Node15&#45;&gt;Node17</title>
<g id="a_edge16_Node000015_Node000017"><a xlink:title=" ">
<path fill="none" stroke="#63b8ff" d="M1331.74,-73.27C1357.64,-62.94 1387.79,-50.9 1412.51,-41.04"/>
<polygon fill="#63b8ff" stroke="#63b8ff" points="1330.4,-70.03 1322.4,-76.99 1332.99,-76.54 1330.4,-70.03"/>
</a>
</g>
</g>
</g>
</svg>

<g id="navigator" transform="translate(0 0)" fill="#404254">
  <rect fill="#f2f5e9" fill-opacity="0.5" stroke="#606060" stroke-width=".5" x="0" y="0" width="60" height="60"/>
  <use id="zoomplus" xlink:href="#zoomPlus" x="17" y="9" onmousedown="handleZoom(evt,'in')"/>
  <use id="zoomminus" xlink:href="#zoomMin" x="42" y="9" onmousedown="handleZoom(evt,'out')"/>
  <use id="reset" xlink:href="#resetDef" x="30" y="36" onmousedown="handleReset()"/>
   <use id="arrowup" xlink:href="#arrowUp" x="0" y="0" onmousedown="handlePan(0,-1)"/>
  <use id="arrowright" xlink:href="#arrowRight" x="0" y="0" onmousedown="handlePan(1,0)"/>
  <use id="arrowdown" xlink:href="#arrowDown" x="0" y="0" onmousedown="handlePan(0,1)"/>
  <use id="arrowleft" xlink:href="#arrowLeft" x="0" y="0" onmousedown="handlePan(-1,0)"/>
</g>
<svg viewBox="0 0 15 15" width="100%" height="30px" preserveAspectRatio="xMaxYMin meet">
 <g id="arrow_out" transform="scale(0.3 0.3)">
  <a xlink:href="aducm3029__spi_8h__dep__incl_org.svg" target="_base">
   <rect id="button" ry="5" rx="5" y="6" x="6" height="38" width="38"
        fill="#f2f5e9" fill-opacity="0.5" stroke="#606060" stroke-width="1.0"/>
   <path id="arrow"
     d="M 11.500037,31.436501 C 11.940474,20.09759 22.043105,11.32322 32.158766,21.979434 L 37.068811,17.246167 C 37.068811,17.246167 37.088388,32 37.088388,32 L 22.160133,31.978069 C 22.160133,31.978069 26.997745,27.140456 26.997745,27.140456 C 18.528582,18.264221 13.291696,25.230495 11.500037,31.436501 z"
     style="fill:#404040;"/>
  </a>
 </g>
</svg>

<style type='text/css'>
<![CDATA[
[data-mouse-over-selected='false'] { opacity: 0.7; }
[data-mouse-over-selected='true']  { opacity: 1.0; }
]]>
</style>
<script type="application/ecmascript"><![CDATA[
document.addEventListener('DOMContentLoaded', (event) => {
  highlightEdges();
  highlightAdjacentNodes();
});
]]></script>
</svg>
