<?xml version="1.0" encoding="UTF-8" standalone="no"?>
<!DOCTYPE svg PUBLIC "-//W3C//DTD SVG 1.1//EN"
 "http://www.w3.org/Graphics/SVG/1.1/DTD/svg11.dtd">
<!-- Generated by graphviz version 2.43.0 (0)
 -->
<!-- Title: drivers/platform/aducm3029/aducm3029_uart_stdio.h Pages: 1 -->
<svg width="962pt" height="192pt"
 viewBox="0.00 0.00 961.50 192.00" xmlns="http://www.w3.org/2000/svg" xmlns:xlink="http://www.w3.org/1999/xlink">
<g id="graph0" class="graph" transform="scale(1 1) rotate(0) translate(4 188)">
<title>drivers/platform/aducm3029/aducm3029_uart_stdio.h</title>
<!-- Node1 -->
<g id="Node000001" class="node">
<title>Node1</title>
<g id="a_Node000001"><a xlink:title="Header file for UART driver stdout/stdin redirection.">
<polygon fill="#999999" stroke="#666666" points="436.5,-184 281.5,-184 281.5,-154 436.5,-154 436.5,-184"/>
<text text-anchor="start" x="289.5" y="-172" font-family="Helvetica,sans-Serif" font-size="10.00">drivers/platform/aducm3029</text>
<text text-anchor="middle" x="359" y="-161" font-family="Helvetica,sans-Serif" font-size="10.00">/aducm3029_uart_stdio.h</text>
</a>
</g>
</g>
<!-- Node2 -->
<g id="Node000002" class="node">
<title>Node2</title>
<g id="a_Node000002"><a xlink:href="ad7746-ebz_2src_2app_2headless_8c.html" target="_top" xlink:title="AD7746&#45;EBZ demo project main file.">
<polygon fill="white" stroke="#666666" points="116,-112.5 0,-112.5 0,-82.5 116,-82.5 116,-112.5"/>
<text text-anchor="start" x="8" y="-100.5" font-family="Helvetica,sans-Serif" font-size="10.00">projects/ad7746&#45;ebz</text>
<text text-anchor="middle" x="58" y="-89.5" font-family="Helvetica,sans-Serif" font-size="10.00">/src/app/headless.c</text>
</a>
</g>
</g>
<!-- Node1&#45;&gt;Node2 -->
<g id="edge1_Node000001_Node000002" class="edge">
<title>Node1&#45;&gt;Node2</title>
<g id="a_edge1_Node000001_Node000002"><a xlink:title=" ">
<path fill="none" stroke="#63b8ff" d="M276.73,-151.95C231.73,-142.78 175.09,-130.62 125,-118 118.42,-116.34 111.52,-114.48 104.74,-112.57"/>
<polygon fill="#63b8ff" stroke="#63b8ff" points="276.24,-155.42 286.74,-153.97 277.63,-148.56 276.24,-155.42"/>
</a>
</g>
</g>
<!-- Node3 -->
<g id="Node000003" class="node">
<title>Node3</title>
<g id="a_Node000003"><a xlink:href="aducm3029__flash__demo_2src_2platform_2aducm3029_2parameters_8h.html" target="_top" xlink:title="Definitions specific to ADuCM3029 platform used by aducm3029_flash_demo project.">
<polygon fill="white" stroke="#666666" points="279.5,-118 134.5,-118 134.5,-77 279.5,-77 279.5,-118"/>
<text text-anchor="start" x="142.5" y="-106" font-family="Helvetica,sans-Serif" font-size="10.00">projects/aducm3029</text>
<text text-anchor="start" x="142.5" y="-95" font-family="Helvetica,sans-Serif" font-size="10.00">_flash_demo/src/platform</text>
<text text-anchor="middle" x="207" y="-84" font-family="Helvetica,sans-Serif" font-size="10.00">/aducm3029/parameters.h</text>
</a>
</g>
</g>
<!-- Node1&#45;&gt;Node3 -->
<g id="edge2_Node000001_Node000003" class="edge">
<title>Node1&#45;&gt;Node3</title>
<g id="a_edge2_Node000001_Node000003"><a xlink:title=" ">
<path fill="none" stroke="#63b8ff" d="M319.13,-149.77C297.82,-140.02 271.56,-128.02 249.81,-118.07"/>
<polygon fill="#63b8ff" stroke="#63b8ff" points="317.69,-152.96 328.24,-153.94 320.6,-146.59 317.69,-152.96"/>
</a>
</g>
</g>
<!-- Node5 -->
<g id="Node000005" class="node">
<title>Node5</title>
<g id="a_Node000005"><a xlink:href="cn0565_2src_2platform_2aducm3029_2parameters_8h.html" target="_top" xlink:title="Definitions specific to ADuCM3029 platform used by cn0565 project.">
<polygon fill="white" stroke="#666666" points="420,-118 298,-118 298,-77 420,-77 420,-118"/>
<text text-anchor="start" x="306" y="-106" font-family="Helvetica,sans-Serif" font-size="10.00">projects/cn0565/src</text>
<text text-anchor="start" x="306" y="-95" font-family="Helvetica,sans-Serif" font-size="10.00">/platform/aducm3029</text>
<text text-anchor="middle" x="359" y="-84" font-family="Helvetica,sans-Serif" font-size="10.00">/parameters.h</text>
</a>
</g>
</g>
<!-- Node1&#45;&gt;Node5 -->
<g id="edge4_Node000001_Node000005" class="edge">
<title>Node1&#45;&gt;Node5</title>
<g id="a_edge4_Node000001_Node000005"><a xlink:title=" ">
<path fill="none" stroke="#63b8ff" d="M359,-143.91C359,-135.47 359,-126.1 359,-118.07"/>
<polygon fill="#63b8ff" stroke="#63b8ff" points="355.5,-143.94 359,-153.94 362.5,-143.94 355.5,-143.94"/>
</a>
</g>
</g>
<!-- Node8 -->
<g id="Node000008" class="node">
<title>Node8</title>
<g id="a_Node000008"><a xlink:href="eval-adxl355-pmdz_2src_2platform_2aducm3029_2parameters_8h.html" target="_top" xlink:title="Definitions specific to aducm3029 platform used by eval&#45;adxl355&#45;pmdz project.">
<polygon fill="white" stroke="#666666" points="608,-118 438,-118 438,-77 608,-77 608,-118"/>
<text text-anchor="start" x="446" y="-106" font-family="Helvetica,sans-Serif" font-size="10.00">projects/eval&#45;adxl355</text>
<text text-anchor="start" x="446" y="-95" font-family="Helvetica,sans-Serif" font-size="10.00">&#45;pmdz/src/platform/aducm3029</text>
<text text-anchor="middle" x="523" y="-84" font-family="Helvetica,sans-Serif" font-size="10.00">/parameters.h</text>
</a>
</g>
</g>
<!-- Node1&#45;&gt;Node8 -->
<g id="edge7_Node000001_Node000008" class="edge">
<title>Node1&#45;&gt;Node8</title>
<g id="a_edge7_Node000001_Node000008"><a xlink:title=" ">
<path fill="none" stroke="#63b8ff" d="M401.4,-150.03C424.51,-140.24 453.14,-128.11 476.81,-118.07"/>
<polygon fill="#63b8ff" stroke="#63b8ff" points="400.03,-146.81 392.19,-153.94 402.76,-153.26 400.03,-146.81"/>
</a>
</g>
</g>
<!-- Node11 -->
<g id="Node000011" class="node">
<title>Node11</title>
<g id="a_Node000011"><a xlink:href="eval-ltc4306_2src_2platform_2aducm3029_2parameters_8h.html" target="_top" xlink:title="Definitions specific to aducm3029 platform used by eval&#45;ltc4306&#45;pmdz project.">
<polygon fill="white" stroke="#666666" points="859.5,-118 720.5,-118 720.5,-77 859.5,-77 859.5,-118"/>
<text text-anchor="start" x="728.5" y="-106" font-family="Helvetica,sans-Serif" font-size="10.00">projects/eval&#45;ltc4306</text>
<text text-anchor="start" x="728.5" y="-95" font-family="Helvetica,sans-Serif" font-size="10.00">/src/platform/aducm3029</text>
<text text-anchor="middle" x="790" y="-84" font-family="Helvetica,sans-Serif" font-size="10.00">/parameters.h</text>
</a>
</g>
</g>
<!-- Node1&#45;&gt;Node11 -->
<g id="edge10_Node000001_Node000011" class="edge">
<title>Node1&#45;&gt;Node11</title>
<g id="a_edge10_Node000001_Node000011"><a xlink:title=" ">
<path fill="none" stroke="#63b8ff" d="M446.7,-153.86C527.45,-140.84 645.68,-121.77 720.2,-109.76"/>
<polygon fill="#63b8ff" stroke="#63b8ff" points="445.87,-150.45 436.55,-155.49 446.98,-157.36 445.87,-150.45"/>
</a>
</g>
</g>
<!-- Node4 -->
<g id="Node000004" class="node">
<title>Node4</title>
<g id="a_Node000004"><a xlink:href="aducm3029__flash__demo_2src_2platform_2aducm3029_2main_8c.html" target="_top" xlink:title="Main file for ADuCM3029 platform of aducm3029_flash_demo project.">
<polygon fill="white" stroke="#666666" points="140,-41 0,-41 0,0 140,0 140,-41"/>
<text text-anchor="start" x="8" y="-29" font-family="Helvetica,sans-Serif" font-size="10.00">projects/aducm3029</text>
<text text-anchor="start" x="8" y="-18" font-family="Helvetica,sans-Serif" font-size="10.00">_flash_demo/src/platform</text>
<text text-anchor="middle" x="70" y="-7" font-family="Helvetica,sans-Serif" font-size="10.00">/aducm3029/main.c</text>
</a>
</g>
</g>
<!-- Node3&#45;&gt;Node4 -->
<g id="edge3_Node000003_Node000004" class="edge">
<title>Node3&#45;&gt;Node4</title>
<g id="a_edge3_Node000003_Node000004"><a xlink:title=" ">
<path fill="none" stroke="#63b8ff" d="M162.35,-72.06C144.07,-62.05 123.2,-50.63 105.93,-41.17"/>
<polygon fill="#63b8ff" stroke="#63b8ff" points="160.91,-75.26 171.36,-76.99 164.27,-69.12 160.91,-75.26"/>
</a>
</g>
</g>
<!-- Node6 -->
<g id="Node000006" class="node">
<title>Node6</title>
<g id="a_Node000006"><a xlink:href="cn0565_2src_2platform_2aducm3029_2main_8c.html" target="_top" xlink:title="Main file for ADuCM3029 platform of cn0565 project.">
<polygon fill="white" stroke="#666666" points="280,-41 158,-41 158,0 280,0 280,-41"/>
<text text-anchor="start" x="166" y="-29" font-family="Helvetica,sans-Serif" font-size="10.00">projects/cn0565/src</text>
<text text-anchor="start" x="166" y="-18" font-family="Helvetica,sans-Serif" font-size="10.00">/platform/aducm3029</text>
<text text-anchor="middle" x="219" y="-7" font-family="Helvetica,sans-Serif" font-size="10.00">/main.c</text>
</a>
</g>
</g>
<!-- Node5&#45;&gt;Node6 -->
<g id="edge5_Node000005_Node000006" class="edge">
<title>Node5&#45;&gt;Node6</title>
<g id="a_edge5_Node000005_Node000006"><a xlink:title=" ">
<path fill="none" stroke="#63b8ff" d="M313.63,-72.19C294.89,-62.15 273.45,-50.67 255.72,-41.17"/>
<polygon fill="#63b8ff" stroke="#63b8ff" points="312.11,-75.35 322.58,-76.99 315.42,-69.18 312.11,-75.35"/>
</a>
</g>
</g>
<!-- Node7 -->
<g id="Node000007" class="node">
<title>Node7</title>
<g id="a_Node000007"><a xlink:href="cn0565_2src_2platform_2aducm3029_2parameters_8c.html" target="_top" xlink:title="Definition of ADuCM3029 platform data used by cn0565 project.">
<polygon fill="white" stroke="#666666" points="420,-41 298,-41 298,0 420,0 420,-41"/>
<text text-anchor="start" x="306" y="-29" font-family="Helvetica,sans-Serif" font-size="10.00">projects/cn0565/src</text>
<text text-anchor="start" x="306" y="-18" font-family="Helvetica,sans-Serif" font-size="10.00">/platform/aducm3029</text>
<text text-anchor="middle" x="359" y="-7" font-family="Helvetica,sans-Serif" font-size="10.00">/parameters.c</text>
</a>
</g>
</g>
<!-- Node5&#45;&gt;Node7 -->
<g id="edge6_Node000005_Node000007" class="edge">
<title>Node5&#45;&gt;Node7</title>
<g id="a_edge6_Node000005_Node000007"><a xlink:title=" ">
<path fill="none" stroke="#63b8ff" d="M359,-66.69C359,-58.08 359,-48.9 359,-41.07"/>
<polygon fill="#63b8ff" stroke="#63b8ff" points="355.5,-66.79 359,-76.79 362.5,-66.79 355.5,-66.79"/>
</a>
</g>
</g>
<!-- Node9 -->
<g id="Node000009" class="node">
<title>Node9</title>
<g id="a_Node000009"><a xlink:href="eval-adxl355-pmdz_2src_2platform_2aducm3029_2main_8c.html" target="_top" xlink:title="Main file for aducm3029 platform of eval&#45;adxl355&#45;pmdz project.">
<polygon fill="white" stroke="#666666" points="608,-41 438,-41 438,0 608,0 608,-41"/>
<text text-anchor="start" x="446" y="-29" font-family="Helvetica,sans-Serif" font-size="10.00">projects/eval&#45;adxl355</text>
<text text-anchor="start" x="446" y="-18" font-family="Helvetica,sans-Serif" font-size="10.00">&#45;pmdz/src/platform/aducm3029</text>
<text text-anchor="middle" x="523" y="-7" font-family="Helvetica,sans-Serif" font-size="10.00">/main.c</text>
</a>
</g>
</g>
<!-- Node8&#45;&gt;Node9 -->
<g id="edge8_Node000008_Node000009" class="edge">
<title>Node8&#45;&gt;Node9</title>
<g id="a_edge8_Node000008_Node000009"><a xlink:title=" ">
<path fill="none" stroke="#63b8ff" d="M523,-66.69C523,-58.08 523,-48.9 523,-41.07"/>
<polygon fill="#63b8ff" stroke="#63b8ff" points="519.5,-66.79 523,-76.79 526.5,-66.79 519.5,-66.79"/>
</a>
</g>
</g>
<!-- Node10 -->
<g id="Node000010" class="node">
<title>Node10</title>
<g id="a_Node000010"><a xlink:href="eval-adxl355-pmdz_2src_2platform_2aducm3029_2parameters_8c.html" target="_top" xlink:title="Definition of aducm3029 platform data used by eval&#45;adxl355&#45;pmdz project.">
<polygon fill="white" stroke="#666666" points="796,-41 626,-41 626,0 796,0 796,-41"/>
<text text-anchor="start" x="634" y="-29" font-family="Helvetica,sans-Serif" font-size="10.00">projects/eval&#45;adxl355</text>
<text text-anchor="start" x="634" y="-18" font-family="Helvetica,sans-Serif" font-size="10.00">&#45;pmdz/src/platform/aducm3029</text>
<text text-anchor="middle" x="711" y="-7" font-family="Helvetica,sans-Serif" font-size="10.00">/parameters.c</text>
</a>
</g>
</g>
<!-- Node8&#45;&gt;Node10 -->
<g id="edge9_Node000008_Node000010" class="edge">
<title>Node8&#45;&gt;Node10</title>
<g id="a_edge9_Node000008_Node000010"><a xlink:title=" ">
<path fill="none" stroke="#63b8ff" d="M581.24,-73.27C607.14,-62.94 637.29,-50.9 662.01,-41.04"/>
<polygon fill="#63b8ff" stroke="#63b8ff" points="579.9,-70.03 571.9,-76.99 582.49,-76.54 579.9,-70.03"/>
</a>
</g>
</g>
<!-- Node12 -->
<g id="Node000012" class="node">
<title>Node12</title>
<g id="a_Node000012"><a xlink:href="eval-ltc4306_2src_2platform_2aducm3029_2main_8c.html" target="_top" xlink:title="Main file for aducm3029 platform of eval&#45;ltc4306&#45;pmdz project.">
<polygon fill="white" stroke="#666666" points="953.5,-41 814.5,-41 814.5,0 953.5,0 953.5,-41"/>
<text text-anchor="start" x="822.5" y="-29" font-family="Helvetica,sans-Serif" font-size="10.00">projects/eval&#45;ltc4306</text>
<text text-anchor="start" x="822.5" y="-18" font-family="Helvetica,sans-Serif" font-size="10.00">/src/platform/aducm3029</text>
<text text-anchor="middle" x="884" y="-7" font-family="Helvetica,sans-Serif" font-size="10.00">/main.c</text>
</a>
</g>
</g>
<!-- Node11&#45;&gt;Node12 -->
<g id="edge11_Node000011_Node000012" class="edge">
<title>Node11&#45;&gt;Node12</title>
<g id="a_edge11_Node000011_Node000012"><a xlink:title=" ">
<path fill="none" stroke="#63b8ff" d="M822.78,-70.35C834.83,-60.73 848.26,-50.01 859.47,-41.07"/>
<polygon fill="#63b8ff" stroke="#63b8ff" points="820.33,-67.82 814.7,-76.79 824.7,-73.29 820.33,-67.82"/>
</a>
</g>
</g>
</g>
</svg>
