<?xml version="1.0" encoding="UTF-8" standalone="no"?>
<!DOCTYPE svg PUBLIC "-//W3C//DTD SVG 1.1//EN"
 "http://www.w3.org/Graphics/SVG/1.1/DTD/svg11.dtd">
<!-- Generated by graphviz version 2.43.0 (0)
 -->
<!-- Title: drivers/platform/aducm3029/aducm3029_irq.h Pages: 1 -->
<svg width="3110pt" height="192pt"
 viewBox="0.00 0.00 3110.00 192.00" xmlns="http://www.w3.org/2000/svg" xmlns:xlink="http://www.w3.org/1999/xlink">
<g id="graph0" class="graph" transform="scale(1 1) rotate(0) translate(4 188)">
<title>drivers/platform/aducm3029/aducm3029_irq.h</title>
<!-- Node1 -->
<g id="Node000001" class="node">
<title>Node1</title>
<g id="a_Node000001"><a xlink:title="Header file of IRQ driver for ADuCM302x.">
<polygon fill="#999999" stroke="#666666" points="1343,-184 1188,-184 1188,-154 1343,-154 1343,-184"/>
<text text-anchor="start" x="1196" y="-172" font-family="Helvetica,sans-Serif" font-size="10.00">drivers/platform/aducm3029</text>
<text text-anchor="middle" x="1265.5" y="-161" font-family="Helvetica,sans-Serif" font-size="10.00">/aducm3029_irq.h</text>
</a>
</g>
</g>
<!-- Node2 -->
<g id="Node000002" class="node">
<title>Node2</title>
<g id="a_Node000002"><a xlink:href="aducm3029__gpio__irq_8c.html" target="_top" xlink:title="Source file for GPIO IRQ driver.">
<polygon fill="white" stroke="#666666" points="155,-112.5 0,-112.5 0,-82.5 155,-82.5 155,-112.5"/>
<text text-anchor="start" x="8" y="-100.5" font-family="Helvetica,sans-Serif" font-size="10.00">drivers/platform/aducm3029</text>
<text text-anchor="middle" x="77.5" y="-89.5" font-family="Helvetica,sans-Serif" font-size="10.00">/aducm3029_gpio_irq.c</text>
</a>
</g>
</g>
<!-- Node1&#45;&gt;Node2 -->
<g id="edge1_Node000001_Node000002" class="edge">
<title>Node1&#45;&gt;Node2</title>
<g id="a_edge1_Node000001_Node000002"><a xlink:title=" ">
<path fill="none" stroke="#63b8ff" d="M1177.64,-166.03C952.49,-160.66 358.83,-144.36 163.5,-118 153.49,-116.65 142.92,-114.7 132.75,-112.55"/>
<polygon fill="#63b8ff" stroke="#63b8ff" points="1177.68,-169.53 1187.76,-166.27 1177.85,-162.53 1177.68,-169.53"/>
</a>
</g>
</g>
<!-- Node3 -->
<g id="Node000003" class="node">
<title>Node3</title>
<g id="a_Node000003"><a xlink:href="aducm3029__irq_8c.html" target="_top" xlink:title="Implementation of External IRQ driver for ADuCM302x.">
<polygon fill="white" stroke="#666666" points="328,-112.5 173,-112.5 173,-82.5 328,-82.5 328,-112.5"/>
<text text-anchor="start" x="181" y="-100.5" font-family="Helvetica,sans-Serif" font-size="10.00">drivers/platform/aducm3029</text>
<text text-anchor="middle" x="250.5" y="-89.5" font-family="Helvetica,sans-Serif" font-size="10.00">/aducm3029_irq.c</text>
</a>
</g>
</g>
<!-- Node1&#45;&gt;Node3 -->
<g id="edge2_Node000001_Node000003" class="edge">
<title>Node1&#45;&gt;Node3</title>
<g id="a_edge2_Node000001_Node000003"><a xlink:title=" ">
<path fill="none" stroke="#63b8ff" d="M1177.88,-168.21C1012.56,-167.51 643.62,-160.77 336.5,-118 326.64,-116.63 316.25,-114.69 306.22,-112.57"/>
<polygon fill="#63b8ff" stroke="#63b8ff" points="1177.99,-171.71 1188,-168.24 1178.01,-164.71 1177.99,-171.71"/>
</a>
</g>
</g>
<!-- Node4 -->
<g id="Node000004" class="node">
<title>Node4</title>
<g id="a_Node000004"><a xlink:href="aducm3029__uart_8c.html" target="_top" xlink:title="Implementation of UART driver for ADuCM302x.">
<polygon fill="white" stroke="#666666" points="501,-112.5 346,-112.5 346,-82.5 501,-82.5 501,-112.5"/>
<text text-anchor="start" x="354" y="-100.5" font-family="Helvetica,sans-Serif" font-size="10.00">drivers/platform/aducm3029</text>
<text text-anchor="middle" x="423.5" y="-89.5" font-family="Helvetica,sans-Serif" font-size="10.00">/aducm3029_uart.c</text>
</a>
</g>
</g>
<!-- Node1&#45;&gt;Node4 -->
<g id="edge3_Node000001_Node000004" class="edge">
<title>Node1&#45;&gt;Node4</title>
<g id="a_edge3_Node000001_Node000004"><a xlink:title=" ">
<path fill="none" stroke="#63b8ff" d="M1177.46,-166.65C1035.97,-163.48 749.51,-152.93 509.5,-118 499.8,-116.59 489.58,-114.66 479.7,-112.57"/>
<polygon fill="#63b8ff" stroke="#63b8ff" points="1177.73,-170.16 1187.81,-166.87 1177.89,-163.16 1177.73,-170.16"/>
</a>
</g>
</g>
<!-- Node5 -->
<g id="Node000005" class="node">
<title>Node5</title>
<g id="a_Node000005"><a xlink:href="ad7746-ebz_2src_2app_2parameters_8h.html" target="_top" xlink:title="Configuration parameters for AD7746&#45;EBZ demo project.">
<polygon fill="white" stroke="#666666" points="642,-112.5 519,-112.5 519,-82.5 642,-82.5 642,-112.5"/>
<text text-anchor="start" x="527" y="-100.5" font-family="Helvetica,sans-Serif" font-size="10.00">projects/ad7746&#45;ebz</text>
<text text-anchor="middle" x="580.5" y="-89.5" font-family="Helvetica,sans-Serif" font-size="10.00">/src/app/parameters.h</text>
</a>
</g>
</g>
<!-- Node1&#45;&gt;Node5 -->
<g id="edge4_Node000001_Node000005" class="edge">
<title>Node1&#45;&gt;Node5</title>
<g id="a_edge4_Node000001_Node000005"><a xlink:title=" ">
<path fill="none" stroke="#63b8ff" d="M1177.48,-166.1C1057.48,-162.33 836.23,-151.11 650.5,-118 642.55,-116.58 634.2,-114.66 626.15,-112.56"/>
<polygon fill="#63b8ff" stroke="#63b8ff" points="1177.61,-169.61 1187.71,-166.42 1177.82,-162.61 1177.61,-169.61"/>
</a>
</g>
</g>
<!-- Node7 -->
<g id="Node000007" class="node">
<title>Node7</title>
<g id="a_Node000007"><a xlink:href="ada4250__ardz_2src_2platform_2aducm3029_2parameters_8h.html" target="_top" xlink:title="Definitions specific to ADuCM3029 platform used by ada4250_ardz project.">
<polygon fill="white" stroke="#666666" points="799,-118 660,-118 660,-77 799,-77 799,-118"/>
<text text-anchor="start" x="668" y="-106" font-family="Helvetica,sans-Serif" font-size="10.00">projects/ada4250_ardz</text>
<text text-anchor="start" x="668" y="-95" font-family="Helvetica,sans-Serif" font-size="10.00">/src/platform/aducm3029</text>
<text text-anchor="middle" x="729.5" y="-84" font-family="Helvetica,sans-Serif" font-size="10.00">/parameters.h</text>
</a>
</g>
</g>
<!-- Node1&#45;&gt;Node7 -->
<g id="edge6_Node000001_Node000007" class="edge">
<title>Node1&#45;&gt;Node7</title>
<g id="a_edge6_Node000001_Node000007"><a xlink:title=" ">
<path fill="none" stroke="#63b8ff" d="M1177.48,-161.97C1084.9,-154.79 935.19,-140.82 807.5,-118 804.75,-117.51 801.96,-116.98 799.14,-116.41"/>
<polygon fill="#63b8ff" stroke="#63b8ff" points="1177.41,-165.48 1187.65,-162.75 1177.95,-158.5 1177.41,-165.48"/>
</a>
</g>
</g>
<!-- Node10 -->
<g id="Node000010" class="node">
<title>Node10</title>
<g id="a_Node000010"><a xlink:href="aducm3029__flash__demo_2src_2platform_2aducm3029_2parameters_8h.html" target="_top" xlink:title="Definitions specific to ADuCM3029 platform used by aducm3029_flash_demo project.">
<polygon fill="white" stroke="#666666" points="962,-118 817,-118 817,-77 962,-77 962,-118"/>
<text text-anchor="start" x="825" y="-106" font-family="Helvetica,sans-Serif" font-size="10.00">projects/aducm3029</text>
<text text-anchor="start" x="825" y="-95" font-family="Helvetica,sans-Serif" font-size="10.00">_flash_demo/src/platform</text>
<text text-anchor="middle" x="889.5" y="-84" font-family="Helvetica,sans-Serif" font-size="10.00">/aducm3029/parameters.h</text>
</a>
</g>
</g>
<!-- Node1&#45;&gt;Node10 -->
<g id="edge9_Node000001_Node000010" class="edge">
<title>Node1&#45;&gt;Node10</title>
<g id="a_edge9_Node000001_Node000010"><a xlink:title=" ">
<path fill="none" stroke="#63b8ff" d="M1177.9,-154.76C1119.06,-145.47 1039.89,-132.22 970.5,-118 967.81,-117.45 965.07,-116.87 962.31,-116.28"/>
<polygon fill="#63b8ff" stroke="#63b8ff" points="1177.48,-158.24 1187.9,-156.33 1178.57,-151.32 1177.48,-158.24"/>
</a>
</g>
</g>
<!-- Node12 -->
<g id="Node000012" class="node">
<title>Node12</title>
<g id="a_Node000012"><a xlink:href="adxrs290-pmdz_2src_2platform_2aducm3029_2parameters_8h.html" target="_top" xlink:title="Definitions specific to STM32 platform used by eval&#45;adxrs290&#45;pmdz project.">
<polygon fill="white" stroke="#666666" points="1119,-118 980,-118 980,-77 1119,-77 1119,-118"/>
<text text-anchor="start" x="988" y="-106" font-family="Helvetica,sans-Serif" font-size="10.00">projects/adxrs290&#45;pmdz</text>
<text text-anchor="start" x="988" y="-95" font-family="Helvetica,sans-Serif" font-size="10.00">/src/platform/aducm3029</text>
<text text-anchor="middle" x="1049.5" y="-84" font-family="Helvetica,sans-Serif" font-size="10.00">/parameters.h</text>
</a>
</g>
</g>
<!-- Node1&#45;&gt;Node12 -->
<g id="edge11_Node000001_Node000012" class="edge">
<title>Node1&#45;&gt;Node12</title>
<g id="a_edge11_Node000001_Node000012"><a xlink:title=" ">
<path fill="none" stroke="#63b8ff" d="M1212.08,-150.81C1181.24,-140.89 1142.35,-128.37 1110.33,-118.07"/>
<polygon fill="#63b8ff" stroke="#63b8ff" points="1211.2,-154.2 1221.79,-153.94 1213.34,-147.54 1211.2,-154.2"/>
</a>
</g>
</g>
<!-- Node15 -->
<g id="Node000015" class="node">
<title>Node15</title>
<g id="a_Node000015"><a xlink:href="cn0531_2src_2platform_2aducm3029_2parameters_8h.html" target="_top" xlink:title="Definitions specific to ADuCM3029 platform used by cn0531 project.">
<polygon fill="white" stroke="#666666" points="1259.5,-118 1137.5,-118 1137.5,-77 1259.5,-77 1259.5,-118"/>
<text text-anchor="start" x="1145.5" y="-106" font-family="Helvetica,sans-Serif" font-size="10.00">projects/cn0531/src</text>
<text text-anchor="start" x="1145.5" y="-95" font-family="Helvetica,sans-Serif" font-size="10.00">/platform/aducm3029</text>
<text text-anchor="middle" x="1198.5" y="-84" font-family="Helvetica,sans-Serif" font-size="10.00">/parameters.h</text>
</a>
</g>
</g>
<!-- Node1&#45;&gt;Node15 -->
<g id="edge14_Node000001_Node000015" class="edge">
<title>Node1&#45;&gt;Node15</title>
<g id="a_edge14_Node000001_Node000015"><a xlink:title=" ">
<path fill="none" stroke="#63b8ff" d="M1244.95,-146.69C1236.16,-137.57 1225.97,-126.99 1217.37,-118.07"/>
<polygon fill="#63b8ff" stroke="#63b8ff" points="1242.48,-149.17 1251.94,-153.94 1247.52,-144.31 1242.48,-149.17"/>
</a>
</g>
</g>
<!-- Node18 -->
<g id="Node000018" class="node">
<title>Node18</title>
<g id="a_Node000018"><a xlink:href="cn0552_2src_2app_2parameters_8h.html" target="_top" xlink:title="Configuration parameters for AD7746&#45;EBZ demo project.">
<polygon fill="white" stroke="#666666" points="1389,-112.5 1278,-112.5 1278,-82.5 1389,-82.5 1389,-112.5"/>
<text text-anchor="start" x="1286" y="-100.5" font-family="Helvetica,sans-Serif" font-size="10.00">projects/cn0552/src</text>
<text text-anchor="middle" x="1333.5" y="-89.5" font-family="Helvetica,sans-Serif" font-size="10.00">/app/parameters.h</text>
</a>
</g>
</g>
<!-- Node1&#45;&gt;Node18 -->
<g id="edge17_Node000001_Node000018" class="edge">
<title>Node1&#45;&gt;Node18</title>
<g id="a_edge17_Node000001_Node000018"><a xlink:title=" ">
<path fill="none" stroke="#63b8ff" d="M1286.37,-146.67C1297.22,-135.58 1310.18,-122.34 1319.76,-112.54"/>
<polygon fill="#63b8ff" stroke="#63b8ff" points="1283.75,-144.34 1279.26,-153.94 1288.76,-149.24 1283.75,-144.34"/>
</a>
</g>
</g>
<!-- Node20 -->
<g id="Node000020" class="node">
<title>Node20</title>
<g id="a_Node000020"><a xlink:href="cn0565_2src_2platform_2aducm3029_2parameters_8h.html" target="_top" xlink:title="Definitions specific to ADuCM3029 platform used by cn0565 project.">
<polygon fill="white" stroke="#666666" points="1529.5,-118 1407.5,-118 1407.5,-77 1529.5,-77 1529.5,-118"/>
<text text-anchor="start" x="1415.5" y="-106" font-family="Helvetica,sans-Serif" font-size="10.00">projects/cn0565/src</text>
<text text-anchor="start" x="1415.5" y="-95" font-family="Helvetica,sans-Serif" font-size="10.00">/platform/aducm3029</text>
<text text-anchor="middle" x="1468.5" y="-84" font-family="Helvetica,sans-Serif" font-size="10.00">/parameters.h</text>
</a>
</g>
</g>
<!-- Node1&#45;&gt;Node20 -->
<g id="edge19_Node000001_Node000020" class="edge">
<title>Node1&#45;&gt;Node20</title>
<g id="a_edge19_Node000001_Node000020"><a xlink:title=" ">
<path fill="none" stroke="#63b8ff" d="M1316.08,-150.68C1345.01,-140.78 1381.37,-128.33 1411.33,-118.07"/>
<polygon fill="#63b8ff" stroke="#63b8ff" points="1314.91,-147.39 1306.58,-153.94 1317.17,-154.01 1314.91,-147.39"/>
</a>
</g>
</g>
<!-- Node23 -->
<g id="Node000023" class="node">
<title>Node23</title>
<g id="a_Node000023"><a xlink:href="demo__esp_2src_2platform_2aducm3029_2parameters_8h.html" target="_top" xlink:title="Definitions specific to aducm3029 platform used by demo_esp project.">
<polygon fill="white" stroke="#666666" points="1861.5,-112.5 1671.5,-112.5 1671.5,-82.5 1861.5,-82.5 1861.5,-112.5"/>
<text text-anchor="start" x="1679.5" y="-100.5" font-family="Helvetica,sans-Serif" font-size="10.00">projects/demo_esp/src</text>
<text text-anchor="middle" x="1766.5" y="-89.5" font-family="Helvetica,sans-Serif" font-size="10.00">/platform/aducm3029/parameters.h</text>
</a>
</g>
</g>
<!-- Node1&#45;&gt;Node23 -->
<g id="edge22_Node000001_Node000023" class="edge">
<title>Node1&#45;&gt;Node23</title>
<g id="a_edge22_Node000001_Node000023"><a xlink:title=" ">
<path fill="none" stroke="#63b8ff" d="M1353.31,-155.82C1442.4,-143.46 1579.86,-124.39 1671.46,-111.68"/>
<polygon fill="#63b8ff" stroke="#63b8ff" points="1352.66,-152.38 1343.23,-157.22 1353.62,-159.31 1352.66,-152.38"/>
</a>
</g>
</g>
<!-- Node26 -->
<g id="Node000026" class="node">
<title>Node26</title>
<g id="a_Node000026"><a xlink:href="eval-adxl355-pmdz_2src_2platform_2aducm3029_2parameters_8h.html" target="_top" xlink:title="Definitions specific to aducm3029 platform used by eval&#45;adxl355&#45;pmdz project.">
<polygon fill="white" stroke="#666666" points="2241.5,-118 2071.5,-118 2071.5,-77 2241.5,-77 2241.5,-118"/>
<text text-anchor="start" x="2079.5" y="-106" font-family="Helvetica,sans-Serif" font-size="10.00">projects/eval&#45;adxl355</text>
<text text-anchor="start" x="2079.5" y="-95" font-family="Helvetica,sans-Serif" font-size="10.00">&#45;pmdz/src/platform/aducm3029</text>
<text text-anchor="middle" x="2156.5" y="-84" font-family="Helvetica,sans-Serif" font-size="10.00">/parameters.h</text>
</a>
</g>
</g>
<!-- Node1&#45;&gt;Node26 -->
<g id="edge25_Node000001_Node000026" class="edge">
<title>Node1&#45;&gt;Node26</title>
<g id="a_edge25_Node000001_Node000026"><a xlink:title=" ">
<path fill="none" stroke="#63b8ff" d="M1353,-161.17C1524.32,-147.81 1902.03,-118.35 2071.4,-105.14"/>
<polygon fill="#63b8ff" stroke="#63b8ff" points="1352.71,-157.69 1343.01,-161.95 1353.25,-164.67 1352.71,-157.69"/>
</a>
</g>
</g>
<!-- Node29 -->
<g id="Node000029" class="node">
<title>Node29</title>
<g id="a_Node000029"><a xlink:href="eval-ltc4306_2src_2platform_2aducm3029_2parameters_8h.html" target="_top" xlink:title="Definitions specific to aducm3029 platform used by eval&#45;ltc4306&#45;pmdz project.">
<polygon fill="white" stroke="#666666" points="2411,-118 2272,-118 2272,-77 2411,-77 2411,-118"/>
<text text-anchor="start" x="2280" y="-106" font-family="Helvetica,sans-Serif" font-size="10.00">projects/eval&#45;ltc4306</text>
<text text-anchor="start" x="2280" y="-95" font-family="Helvetica,sans-Serif" font-size="10.00">/src/platform/aducm3029</text>
<text text-anchor="middle" x="2341.5" y="-84" font-family="Helvetica,sans-Serif" font-size="10.00">/parameters.h</text>
</a>
</g>
</g>
<!-- Node1&#45;&gt;Node29 -->
<g id="edge28_Node000001_Node000029" class="edge">
<title>Node1&#45;&gt;Node29</title>
<g id="a_edge28_Node000001_Node000029"><a xlink:title=" ">
<path fill="none" stroke="#63b8ff" d="M1353.19,-168.25C1525.77,-167.71 1921.35,-161.34 2250.5,-118 2257.39,-117.09 2264.53,-115.94 2271.65,-114.65"/>
<polygon fill="#63b8ff" stroke="#63b8ff" points="1353.13,-164.75 1343.14,-168.28 1353.15,-171.75 1353.13,-164.75"/>
</a>
</g>
</g>
<!-- Node31 -->
<g id="Node000031" class="node">
<title>Node31</title>
<g id="a_Node000031"><a xlink:href="iio__adpd1080_2src_2platform_2aducm3029_2parameters_8h.html" target="_top" xlink:title="Definitions specific to ADuCM3029 platform used by iio_adpd1080 project.">
<polygon fill="white" stroke="#666666" points="2661,-118 2522,-118 2522,-77 2661,-77 2661,-118"/>
<text text-anchor="start" x="2530" y="-106" font-family="Helvetica,sans-Serif" font-size="10.00">projects/iio_adpd1080</text>
<text text-anchor="start" x="2530" y="-95" font-family="Helvetica,sans-Serif" font-size="10.00">/src/platform/aducm3029</text>
<text text-anchor="middle" x="2591.5" y="-84" font-family="Helvetica,sans-Serif" font-size="10.00">/parameters.h</text>
</a>
</g>
</g>
<!-- Node1&#45;&gt;Node31 -->
<g id="edge30_Node000001_Node000031" class="edge">
<title>Node1&#45;&gt;Node31</title>
<g id="a_edge30_Node000001_Node000031"><a xlink:title=" ">
<path fill="none" stroke="#63b8ff" d="M1353.37,-166.28C1546.47,-162.04 2022.26,-149.09 2419.5,-118 2453.21,-115.36 2490.5,-111.28 2521.73,-107.53"/>
<polygon fill="#63b8ff" stroke="#63b8ff" points="1353.2,-162.78 1343.28,-166.5 1353.35,-169.78 1353.2,-162.78"/>
</a>
</g>
</g>
<!-- Node33 -->
<g id="Node000033" class="node">
<title>Node33</title>
<g id="a_Node000033"><a xlink:href="iio__aducm3029_2src_2parameters_8h.html" target="_top" xlink:title="Parameters Definitions.">
<polygon fill="white" stroke="#666666" points="2859,-112.5 2726,-112.5 2726,-82.5 2859,-82.5 2859,-112.5"/>
<text text-anchor="start" x="2734" y="-100.5" font-family="Helvetica,sans-Serif" font-size="10.00">projects/iio_aducm3029</text>
<text text-anchor="middle" x="2792.5" y="-89.5" font-family="Helvetica,sans-Serif" font-size="10.00">/src/parameters.h</text>
</a>
</g>
</g>
<!-- Node1&#45;&gt;Node33 -->
<g id="edge32_Node000001_Node000033" class="edge">
<title>Node1&#45;&gt;Node33</title>
<g id="a_edge32_Node000001_Node000033"><a xlink:title=" ">
<path fill="none" stroke="#63b8ff" d="M1353.61,-168.58C1575.24,-169.22 2173.62,-165.96 2669.5,-118 2687.9,-116.22 2707.73,-113.45 2725.98,-110.56"/>
<polygon fill="#63b8ff" stroke="#63b8ff" points="1353.35,-165.07 1343.34,-168.54 1353.33,-172.07 1353.35,-165.07"/>
</a>
</g>
</g>
<!-- Node35 -->
<g id="Node000035" class="node">
<title>Node35</title>
<g id="a_Node000035"><a xlink:href="iio__demo_2src_2platform_2aducm3029_2parameters_8h.html" target="_top" xlink:title="Definitions specific to aducm3029 platform used by iio_demo project.">
<polygon fill="white" stroke="#666666" points="3090.5,-112.5 2900.5,-112.5 2900.5,-82.5 3090.5,-82.5 3090.5,-112.5"/>
<text text-anchor="start" x="2908.5" y="-100.5" font-family="Helvetica,sans-Serif" font-size="10.00">projects/iio_demo/src</text>
<text text-anchor="middle" x="2995.5" y="-89.5" font-family="Helvetica,sans-Serif" font-size="10.00">/platform/aducm3029/parameters.h</text>
</a>
</g>
</g>
<!-- Node1&#45;&gt;Node35 -->
<g id="edge34_Node000001_Node000035" class="edge">
<title>Node1&#45;&gt;Node35</title>
<g id="a_edge34_Node000001_Node000035"><a xlink:title=" ">
<path fill="none" stroke="#63b8ff" d="M1353.44,-166.66C1643.86,-162.03 2570.68,-145.41 2868.5,-118 2883.27,-116.64 2898.94,-114.67 2914.04,-112.5"/>
<polygon fill="#63b8ff" stroke="#63b8ff" points="1353.33,-163.16 1343.38,-166.82 1353.44,-170.16 1353.33,-163.16"/>
</a>
</g>
</g>
<!-- Node6 -->
<g id="Node000006" class="node">
<title>Node6</title>
<g id="a_Node000006"><a xlink:href="ad7746-ebz_2src_2app_2headless_8c.html" target="_top" xlink:title="AD7746&#45;EBZ demo project main file.">
<polygon fill="white" stroke="#666666" points="191.5,-35.5 75.5,-35.5 75.5,-5.5 191.5,-5.5 191.5,-35.5"/>
<text text-anchor="start" x="83.5" y="-23.5" font-family="Helvetica,sans-Serif" font-size="10.00">projects/ad7746&#45;ebz</text>
<text text-anchor="middle" x="133.5" y="-12.5" font-family="Helvetica,sans-Serif" font-size="10.00">/src/app/headless.c</text>
</a>
</g>
</g>
<!-- Node5&#45;&gt;Node6 -->
<g id="edge5_Node000005_Node000006" class="edge">
<title>Node5&#45;&gt;Node6</title>
<g id="a_edge5_Node000005_Node000006"><a xlink:title=" ">
<path fill="none" stroke="#63b8ff" d="M523.64,-80.07C518.88,-78.94 514.12,-77.9 509.5,-77 373.78,-50.62 336.02,-68.41 200.5,-41 193.14,-39.51 185.41,-37.6 177.93,-35.56"/>
<polygon fill="#63b8ff" stroke="#63b8ff" points="522.83,-83.47 533.38,-82.48 524.52,-76.68 522.83,-83.47"/>
</a>
</g>
</g>
<!-- Node8 -->
<g id="Node000008" class="node">
<title>Node8</title>
<g id="a_Node000008"><a xlink:href="ada4250__ardz_2src_2platform_2aducm3029_2main_8c.html" target="_top" xlink:title="Main file for ADuCM3029 platform of ada4250_ardz project.">
<polygon fill="white" stroke="#666666" points="349,-41 210,-41 210,0 349,0 349,-41"/>
<text text-anchor="start" x="218" y="-29" font-family="Helvetica,sans-Serif" font-size="10.00">projects/ada4250_ardz</text>
<text text-anchor="start" x="218" y="-18" font-family="Helvetica,sans-Serif" font-size="10.00">/src/platform/aducm3029</text>
<text text-anchor="middle" x="279.5" y="-7" font-family="Helvetica,sans-Serif" font-size="10.00">/main.c</text>
</a>
</g>
</g>
<!-- Node7&#45;&gt;Node8 -->
<g id="edge7_Node000007_Node000008" class="edge">
<title>Node7&#45;&gt;Node8</title>
<g id="a_edge7_Node000007_Node000008"><a xlink:title=" ">
<path fill="none" stroke="#63b8ff" d="M649.86,-77.01C519.7,-53.79 483.35,-64.37 357.5,-41 354.76,-40.49 351.96,-39.94 349.15,-39.36"/>
<polygon fill="#63b8ff" stroke="#63b8ff" points="649.35,-80.47 659.81,-78.82 650.6,-73.59 649.35,-80.47"/>
</a>
</g>
</g>
<!-- Node9 -->
<g id="Node000009" class="node">
<title>Node9</title>
<g id="a_Node000009"><a xlink:href="ada4250__ardz_2src_2platform_2aducm3029_2parameters_8c.html" target="_top" xlink:title="Definition of ADuCM3029 platform data used by ada4250_ardz project.">
<polygon fill="white" stroke="#666666" points="506,-41 367,-41 367,0 506,0 506,-41"/>
<text text-anchor="start" x="375" y="-29" font-family="Helvetica,sans-Serif" font-size="10.00">projects/ada4250_ardz</text>
<text text-anchor="start" x="375" y="-18" font-family="Helvetica,sans-Serif" font-size="10.00">/src/platform/aducm3029</text>
<text text-anchor="middle" x="436.5" y="-7" font-family="Helvetica,sans-Serif" font-size="10.00">/parameters.c</text>
</a>
</g>
</g>
<!-- Node7&#45;&gt;Node9 -->
<g id="edge8_Node000007_Node000009" class="edge">
<title>Node7&#45;&gt;Node9</title>
<g id="a_edge8_Node000007_Node000009"><a xlink:title=" ">
<path fill="none" stroke="#63b8ff" d="M649.97,-76.14C604.98,-64.63 549.26,-50.36 506.03,-39.3"/>
<polygon fill="#63b8ff" stroke="#63b8ff" points="649.14,-79.54 659.69,-78.63 650.87,-72.76 649.14,-79.54"/>
</a>
</g>
</g>
<!-- Node11 -->
<g id="Node000011" class="node">
<title>Node11</title>
<g id="a_Node000011"><a xlink:href="aducm3029__flash__demo_2src_2platform_2aducm3029_2main_8c.html" target="_top" xlink:title="Main file for ADuCM3029 platform of aducm3029_flash_demo project.">
<polygon fill="white" stroke="#666666" points="664.5,-41 524.5,-41 524.5,0 664.5,0 664.5,-41"/>
<text text-anchor="start" x="532.5" y="-29" font-family="Helvetica,sans-Serif" font-size="10.00">projects/aducm3029</text>
<text text-anchor="start" x="532.5" y="-18" font-family="Helvetica,sans-Serif" font-size="10.00">_flash_demo/src/platform</text>
<text text-anchor="middle" x="594.5" y="-7" font-family="Helvetica,sans-Serif" font-size="10.00">/aducm3029/main.c</text>
</a>
</g>
</g>
<!-- Node10&#45;&gt;Node11 -->
<g id="edge10_Node000010_Node000011" class="edge">
<title>Node10&#45;&gt;Node11</title>
<g id="a_edge10_Node000010_Node000011"><a xlink:title=" ">
<path fill="none" stroke="#63b8ff" d="M807.26,-75.59C762.43,-64.19 707.53,-50.24 664.73,-39.35"/>
<polygon fill="#63b8ff" stroke="#63b8ff" points="806.4,-78.98 816.96,-78.06 808.13,-72.2 806.4,-78.98"/>
</a>
</g>
</g>
<!-- Node13 -->
<g id="Node000013" class="node">
<title>Node13</title>
<g id="a_Node000013"><a xlink:href="adxrs290-pmdz_2src_2platform_2aducm3029_2main_8c.html" target="_top" xlink:title="Main file for STM32 platform of eval&#45;adxrs290&#45;pmdz project.">
<polygon fill="white" stroke="#666666" points="822,-41 683,-41 683,0 822,0 822,-41"/>
<text text-anchor="start" x="691" y="-29" font-family="Helvetica,sans-Serif" font-size="10.00">projects/adxrs290&#45;pmdz</text>
<text text-anchor="start" x="691" y="-18" font-family="Helvetica,sans-Serif" font-size="10.00">/src/platform/aducm3029</text>
<text text-anchor="middle" x="752.5" y="-7" font-family="Helvetica,sans-Serif" font-size="10.00">/main.c</text>
</a>
</g>
</g>
<!-- Node12&#45;&gt;Node13 -->
<g id="edge12_Node000012_Node000013" class="edge">
<title>Node12&#45;&gt;Node13</title>
<g id="a_edge12_Node000012_Node000013"><a xlink:title=" ">
<path fill="none" stroke="#63b8ff" d="M969.92,-76.41C923.88,-64.78 866.47,-50.28 822.21,-39.1"/>
<polygon fill="#63b8ff" stroke="#63b8ff" points="969.31,-79.86 979.87,-78.92 971.03,-73.07 969.31,-79.86"/>
</a>
</g>
</g>
<!-- Node14 -->
<g id="Node000014" class="node">
<title>Node14</title>
<g id="a_Node000014"><a xlink:href="adxrs290-pmdz_2src_2platform_2aducm3029_2parameters_8c.html" target="_top" xlink:title="Definition of STM32 platform data used by eval&#45;adxrs290&#45;pmdz project.">
<polygon fill="white" stroke="#666666" points="979,-41 840,-41 840,0 979,0 979,-41"/>
<text text-anchor="start" x="848" y="-29" font-family="Helvetica,sans-Serif" font-size="10.00">projects/adxrs290&#45;pmdz</text>
<text text-anchor="start" x="848" y="-18" font-family="Helvetica,sans-Serif" font-size="10.00">/src/platform/aducm3029</text>
<text text-anchor="middle" x="909.5" y="-7" font-family="Helvetica,sans-Serif" font-size="10.00">/parameters.c</text>
</a>
</g>
</g>
<!-- Node12&#45;&gt;Node14 -->
<g id="edge13_Node000012_Node000014" class="edge">
<title>Node12&#45;&gt;Node14</title>
<g id="a_edge13_Node000012_Node000014"><a xlink:title=" ">
<path fill="none" stroke="#63b8ff" d="M1004.13,-72.19C985.39,-62.15 963.95,-50.67 946.22,-41.17"/>
<polygon fill="#63b8ff" stroke="#63b8ff" points="1002.61,-75.35 1013.08,-76.99 1005.92,-69.18 1002.61,-75.35"/>
</a>
</g>
</g>
<!-- Node16 -->
<g id="Node000016" class="node">
<title>Node16</title>
<g id="a_Node000016"><a xlink:href="cn0531_2src_2platform_2aducm3029_2main_8c.html" target="_top" xlink:title="Main file for ADuCM3029 platform of cn0531 project.">
<polygon fill="white" stroke="#666666" points="1119.5,-41 997.5,-41 997.5,0 1119.5,0 1119.5,-41"/>
<text text-anchor="start" x="1005.5" y="-29" font-family="Helvetica,sans-Serif" font-size="10.00">projects/cn0531/src</text>
<text text-anchor="start" x="1005.5" y="-18" font-family="Helvetica,sans-Serif" font-size="10.00">/platform/aducm3029</text>
<text text-anchor="middle" x="1058.5" y="-7" font-family="Helvetica,sans-Serif" font-size="10.00">/main.c</text>
</a>
</g>
</g>
<!-- Node15&#45;&gt;Node16 -->
<g id="edge15_Node000015_Node000016" class="edge">
<title>Node15&#45;&gt;Node16</title>
<g id="a_edge15_Node000015_Node000016"><a xlink:title=" ">
<path fill="none" stroke="#63b8ff" d="M1153.13,-72.19C1134.39,-62.15 1112.95,-50.67 1095.22,-41.17"/>
<polygon fill="#63b8ff" stroke="#63b8ff" points="1151.61,-75.35 1162.08,-76.99 1154.92,-69.18 1151.61,-75.35"/>
</a>
</g>
</g>
<!-- Node17 -->
<g id="Node000017" class="node">
<title>Node17</title>
<g id="a_Node000017"><a xlink:href="cn0531_2src_2platform_2aducm3029_2parameters_8c.html" target="_top" xlink:title="Definition of ADuCM3029 platform data used by cn0531 project.">
<polygon fill="white" stroke="#666666" points="1259.5,-41 1137.5,-41 1137.5,0 1259.5,0 1259.5,-41"/>
<text text-anchor="start" x="1145.5" y="-29" font-family="Helvetica,sans-Serif" font-size="10.00">projects/cn0531/src</text>
<text text-anchor="start" x="1145.5" y="-18" font-family="Helvetica,sans-Serif" font-size="10.00">/platform/aducm3029</text>
<text text-anchor="middle" x="1198.5" y="-7" font-family="Helvetica,sans-Serif" font-size="10.00">/parameters.c</text>
</a>
</g>
</g>
<!-- Node15&#45;&gt;Node17 -->
<g id="edge16_Node000015_Node000017" class="edge">
<title>Node15&#45;&gt;Node17</title>
<g id="a_edge16_Node000015_Node000017"><a xlink:title=" ">
<path fill="none" stroke="#63b8ff" d="M1198.5,-66.69C1198.5,-58.08 1198.5,-48.9 1198.5,-41.07"/>
<polygon fill="#63b8ff" stroke="#63b8ff" points="1195,-66.79 1198.5,-76.79 1202,-66.79 1195,-66.79"/>
</a>
</g>
</g>
<!-- Node19 -->
<g id="Node000019" class="node">
<title>Node19</title>
<g id="a_Node000019"><a xlink:href="cn0552_2src_2app_2headless_8c.html" target="_top" xlink:title="CN0552 IIO demo project main file.">
<polygon fill="white" stroke="#666666" points="1389,-35.5 1278,-35.5 1278,-5.5 1389,-5.5 1389,-35.5"/>
<text text-anchor="start" x="1286" y="-23.5" font-family="Helvetica,sans-Serif" font-size="10.00">projects/cn0552/src</text>
<text text-anchor="middle" x="1333.5" y="-12.5" font-family="Helvetica,sans-Serif" font-size="10.00">/app/headless.c</text>
</a>
</g>
</g>
<!-- Node18&#45;&gt;Node19 -->
<g id="edge18_Node000018_Node000019" class="edge">
<title>Node18&#45;&gt;Node19</title>
<g id="a_edge18_Node000018_Node000019"><a xlink:title=" ">
<path fill="none" stroke="#63b8ff" d="M1333.5,-72.04C1333.5,-59.95 1333.5,-45.79 1333.5,-35.54"/>
<polygon fill="#63b8ff" stroke="#63b8ff" points="1330,-72.39 1333.5,-82.39 1337,-72.39 1330,-72.39"/>
</a>
</g>
</g>
<!-- Node21 -->
<g id="Node000021" class="node">
<title>Node21</title>
<g id="a_Node000021"><a xlink:href="cn0565_2src_2platform_2aducm3029_2main_8c.html" target="_top" xlink:title="Main file for ADuCM3029 platform of cn0565 project.">
<polygon fill="white" stroke="#666666" points="1529.5,-41 1407.5,-41 1407.5,0 1529.5,0 1529.5,-41"/>
<text text-anchor="start" x="1415.5" y="-29" font-family="Helvetica,sans-Serif" font-size="10.00">projects/cn0565/src</text>
<text text-anchor="start" x="1415.5" y="-18" font-family="Helvetica,sans-Serif" font-size="10.00">/platform/aducm3029</text>
<text text-anchor="middle" x="1468.5" y="-7" font-family="Helvetica,sans-Serif" font-size="10.00">/main.c</text>
</a>
</g>
</g>
<!-- Node20&#45;&gt;Node21 -->
<g id="edge20_Node000020_Node000021" class="edge">
<title>Node20&#45;&gt;Node21</title>
<g id="a_edge20_Node000020_Node000021"><a xlink:title=" ">
<path fill="none" stroke="#63b8ff" d="M1468.5,-66.69C1468.5,-58.08 1468.5,-48.9 1468.5,-41.07"/>
<polygon fill="#63b8ff" stroke="#63b8ff" points="1465,-66.79 1468.5,-76.79 1472,-66.79 1465,-66.79"/>
</a>
</g>
</g>
<!-- Node22 -->
<g id="Node000022" class="node">
<title>Node22</title>
<g id="a_Node000022"><a xlink:href="cn0565_2src_2platform_2aducm3029_2parameters_8c.html" target="_top" xlink:title="Definition of ADuCM3029 platform data used by cn0565 project.">
<polygon fill="white" stroke="#666666" points="1669.5,-41 1547.5,-41 1547.5,0 1669.5,0 1669.5,-41"/>
<text text-anchor="start" x="1555.5" y="-29" font-family="Helvetica,sans-Serif" font-size="10.00">projects/cn0565/src</text>
<text text-anchor="start" x="1555.5" y="-18" font-family="Helvetica,sans-Serif" font-size="10.00">/platform/aducm3029</text>
<text text-anchor="middle" x="1608.5" y="-7" font-family="Helvetica,sans-Serif" font-size="10.00">/parameters.c</text>
</a>
</g>
</g>
<!-- Node20&#45;&gt;Node22 -->
<g id="edge21_Node000020_Node000022" class="edge">
<title>Node20&#45;&gt;Node22</title>
<g id="a_edge21_Node000020_Node000022"><a xlink:title=" ">
<path fill="none" stroke="#63b8ff" d="M1513.87,-72.19C1532.61,-62.15 1554.05,-50.67 1571.78,-41.17"/>
<polygon fill="#63b8ff" stroke="#63b8ff" points="1512.08,-69.18 1504.92,-76.99 1515.39,-75.35 1512.08,-69.18"/>
</a>
</g>
</g>
<!-- Node24 -->
<g id="Node000024" class="node">
<title>Node24</title>
<g id="a_Node000024"><a xlink:href="demo__esp_2src_2platform_2aducm3029_2main_8c.html" target="_top" xlink:title="Main file for aducm3029 platform of demo_esp project.">
<polygon fill="white" stroke="#666666" points="1845.5,-35.5 1687.5,-35.5 1687.5,-5.5 1845.5,-5.5 1845.5,-35.5"/>
<text text-anchor="start" x="1695.5" y="-23.5" font-family="Helvetica,sans-Serif" font-size="10.00">projects/demo_esp/src</text>
<text text-anchor="middle" x="1766.5" y="-12.5" font-family="Helvetica,sans-Serif" font-size="10.00">/platform/aducm3029/main.c</text>
</a>
</g>
</g>
<!-- Node23&#45;&gt;Node24 -->
<g id="edge23_Node000023_Node000024" class="edge">
<title>Node23&#45;&gt;Node24</title>
<g id="a_edge23_Node000023_Node000024"><a xlink:title=" ">
<path fill="none" stroke="#63b8ff" d="M1766.5,-72.04C1766.5,-59.95 1766.5,-45.79 1766.5,-35.54"/>
<polygon fill="#63b8ff" stroke="#63b8ff" points="1763,-72.39 1766.5,-82.39 1770,-72.39 1763,-72.39"/>
</a>
</g>
</g>
<!-- Node25 -->
<g id="Node000025" class="node">
<title>Node25</title>
<g id="a_Node000025"><a xlink:href="demo__esp_2src_2platform_2aducm3029_2parameters_8c.html" target="_top" xlink:title="Definition of aducm3029 platform data used by demo_esp.">
<polygon fill="white" stroke="#666666" points="2053,-35.5 1864,-35.5 1864,-5.5 2053,-5.5 2053,-35.5"/>
<text text-anchor="start" x="1872" y="-23.5" font-family="Helvetica,sans-Serif" font-size="10.00">projects/demo_esp/src</text>
<text text-anchor="middle" x="1958.5" y="-12.5" font-family="Helvetica,sans-Serif" font-size="10.00">/platform/aducm3029/parameters.c</text>
</a>
</g>
</g>
<!-- Node23&#45;&gt;Node25 -->
<g id="edge24_Node000023_Node000025" class="edge">
<title>Node23&#45;&gt;Node25</title>
<g id="a_edge24_Node000023_Node000025"><a xlink:title=" ">
<path fill="none" stroke="#63b8ff" d="M1812.25,-78.63C1846.03,-65.43 1891.35,-47.73 1922.55,-35.54"/>
<polygon fill="#63b8ff" stroke="#63b8ff" points="1810.65,-75.49 1802.61,-82.39 1813.2,-82.01 1810.65,-75.49"/>
</a>
</g>
</g>
<!-- Node27 -->
<g id="Node000027" class="node">
<title>Node27</title>
<g id="a_Node000027"><a xlink:href="eval-adxl355-pmdz_2src_2platform_2aducm3029_2main_8c.html" target="_top" xlink:title="Main file for aducm3029 platform of eval&#45;adxl355&#45;pmdz project.">
<polygon fill="white" stroke="#666666" points="2241.5,-41 2071.5,-41 2071.5,0 2241.5,0 2241.5,-41"/>
<text text-anchor="start" x="2079.5" y="-29" font-family="Helvetica,sans-Serif" font-size="10.00">projects/eval&#45;adxl355</text>
<text text-anchor="start" x="2079.5" y="-18" font-family="Helvetica,sans-Serif" font-size="10.00">&#45;pmdz/src/platform/aducm3029</text>
<text text-anchor="middle" x="2156.5" y="-7" font-family="Helvetica,sans-Serif" font-size="10.00">/main.c</text>
</a>
</g>
</g>
<!-- Node26&#45;&gt;Node27 -->
<g id="edge26_Node000026_Node000027" class="edge">
<title>Node26&#45;&gt;Node27</title>
<g id="a_edge26_Node000026_Node000027"><a xlink:title=" ">
<path fill="none" stroke="#63b8ff" d="M2156.5,-66.69C2156.5,-58.08 2156.5,-48.9 2156.5,-41.07"/>
<polygon fill="#63b8ff" stroke="#63b8ff" points="2153,-66.79 2156.5,-76.79 2160,-66.79 2153,-66.79"/>
</a>
</g>
</g>
<!-- Node28 -->
<g id="Node000028" class="node">
<title>Node28</title>
<g id="a_Node000028"><a xlink:href="eval-adxl355-pmdz_2src_2platform_2aducm3029_2parameters_8c.html" target="_top" xlink:title="Definition of aducm3029 platform data used by eval&#45;adxl355&#45;pmdz project.">
<polygon fill="white" stroke="#666666" points="2429.5,-41 2259.5,-41 2259.5,0 2429.5,0 2429.5,-41"/>
<text text-anchor="start" x="2267.5" y="-29" font-family="Helvetica,sans-Serif" font-size="10.00">projects/eval&#45;adxl355</text>
<text text-anchor="start" x="2267.5" y="-18" font-family="Helvetica,sans-Serif" font-size="10.00">&#45;pmdz/src/platform/aducm3029</text>
<text text-anchor="middle" x="2344.5" y="-7" font-family="Helvetica,sans-Serif" font-size="10.00">/parameters.c</text>
</a>
</g>
</g>
<!-- Node26&#45;&gt;Node28 -->
<g id="edge27_Node000026_Node000028" class="edge">
<title>Node26&#45;&gt;Node28</title>
<g id="a_edge27_Node000026_Node000028"><a xlink:title=" ">
<path fill="none" stroke="#63b8ff" d="M2214.74,-73.27C2240.64,-62.94 2270.79,-50.9 2295.51,-41.04"/>
<polygon fill="#63b8ff" stroke="#63b8ff" points="2213.4,-70.03 2205.4,-76.99 2215.99,-76.54 2213.4,-70.03"/>
</a>
</g>
</g>
<!-- Node30 -->
<g id="Node000030" class="node">
<title>Node30</title>
<g id="a_Node000030"><a xlink:href="eval-ltc4306_2src_2platform_2aducm3029_2main_8c.html" target="_top" xlink:title="Main file for aducm3029 platform of eval&#45;ltc4306&#45;pmdz project.">
<polygon fill="white" stroke="#666666" points="2587,-41 2448,-41 2448,0 2587,0 2587,-41"/>
<text text-anchor="start" x="2456" y="-29" font-family="Helvetica,sans-Serif" font-size="10.00">projects/eval&#45;ltc4306</text>
<text text-anchor="start" x="2456" y="-18" font-family="Helvetica,sans-Serif" font-size="10.00">/src/platform/aducm3029</text>
<text text-anchor="middle" x="2517.5" y="-7" font-family="Helvetica,sans-Serif" font-size="10.00">/main.c</text>
</a>
</g>
</g>
<!-- Node29&#45;&gt;Node30 -->
<g id="edge29_Node000029_Node000030" class="edge">
<title>Node29&#45;&gt;Node30</title>
<g id="a_edge29_Node000029_Node000030"><a xlink:title=" ">
<path fill="none" stroke="#63b8ff" d="M2396.66,-73C2420.76,-62.72 2448.7,-50.82 2471.64,-41.04"/>
<polygon fill="#63b8ff" stroke="#63b8ff" points="2395.11,-69.85 2387.28,-76.99 2397.85,-76.29 2395.11,-69.85"/>
</a>
</g>
</g>
<!-- Node32 -->
<g id="Node000032" class="node">
<title>Node32</title>
<g id="a_Node000032"><a xlink:href="iio__adpd1080_2src_2platform_2aducm3029_2main_8c.html" target="_top" xlink:title="Main file for ADuCM3029 platform of iio_adpd1080 project.">
<polygon fill="white" stroke="#666666" points="2744,-41 2605,-41 2605,0 2744,0 2744,-41"/>
<text text-anchor="start" x="2613" y="-29" font-family="Helvetica,sans-Serif" font-size="10.00">projects/iio_adpd1080</text>
<text text-anchor="start" x="2613" y="-18" font-family="Helvetica,sans-Serif" font-size="10.00">/src/platform/aducm3029</text>
<text text-anchor="middle" x="2674.5" y="-7" font-family="Helvetica,sans-Serif" font-size="10.00">/main.c</text>
</a>
</g>
</g>
<!-- Node31&#45;&gt;Node32 -->
<g id="edge31_Node000031_Node000032" class="edge">
<title>Node31&#45;&gt;Node32</title>
<g id="a_edge31_Node000031_Node000032"><a xlink:title=" ">
<path fill="none" stroke="#63b8ff" d="M2620.75,-70.07C2631.31,-60.52 2643.04,-49.93 2652.84,-41.07"/>
<polygon fill="#63b8ff" stroke="#63b8ff" points="2618.38,-67.49 2613.31,-76.79 2623.07,-72.69 2618.38,-67.49"/>
</a>
</g>
</g>
<!-- Node34 -->
<g id="Node000034" class="node">
<title>Node34</title>
<g id="a_Node000034"><a xlink:href="iio__aducm3029_2src_2main_8c.html" target="_top" xlink:title="Implementation of Main Function.">
<polygon fill="white" stroke="#666666" points="2895,-35.5 2762,-35.5 2762,-5.5 2895,-5.5 2895,-35.5"/>
<text text-anchor="start" x="2770" y="-23.5" font-family="Helvetica,sans-Serif" font-size="10.00">projects/iio_aducm3029</text>
<text text-anchor="middle" x="2828.5" y="-12.5" font-family="Helvetica,sans-Serif" font-size="10.00">/src/main.c</text>
</a>
</g>
</g>
<!-- Node33&#45;&gt;Node34 -->
<g id="edge33_Node000033_Node000034" class="edge">
<title>Node33&#45;&gt;Node34</title>
<g id="a_edge33_Node000033_Node000034"><a xlink:title=" ">
<path fill="none" stroke="#63b8ff" d="M2803.71,-73.15C2809.63,-60.82 2816.69,-46.11 2821.76,-35.54"/>
<polygon fill="#63b8ff" stroke="#63b8ff" points="2800.44,-71.86 2799.27,-82.39 2806.75,-74.89 2800.44,-71.86"/>
</a>
</g>
</g>
<!-- Node36 -->
<g id="Node000036" class="node">
<title>Node36</title>
<g id="a_Node000036"><a xlink:href="iio__demo_2src_2platform_2aducm3029_2parameters_8c.html" target="_top" xlink:title="Definition of aducm3029 platform data used by iio_demo project.">
<polygon fill="white" stroke="#666666" points="3102,-35.5 2913,-35.5 2913,-5.5 3102,-5.5 3102,-35.5"/>
<text text-anchor="start" x="2921" y="-23.5" font-family="Helvetica,sans-Serif" font-size="10.00">projects/iio_demo/src</text>
<text text-anchor="middle" x="3007.5" y="-12.5" font-family="Helvetica,sans-Serif" font-size="10.00">/platform/aducm3029/parameters.c</text>
</a>
</g>
</g>
<!-- Node35&#45;&gt;Node36 -->
<g id="edge35_Node000035_Node000036" class="edge">
<title>Node35&#45;&gt;Node36</title>
<g id="a_edge35_Node000035_Node000036"><a xlink:title=" ">
<path fill="none" stroke="#63b8ff" d="M2999.35,-72.41C3001.3,-60.24 3003.6,-45.9 3005.25,-35.54"/>
<polygon fill="#63b8ff" stroke="#63b8ff" points="2995.88,-71.97 2997.76,-82.39 3002.79,-73.07 2995.88,-71.97"/>
</a>
</g>
</g>
</g>
</svg>
