<?xml version="1.0" encoding="UTF-8" standalone="no"?>
<!DOCTYPE svg PUBLIC "-//W3C//DTD SVG 1.1//EN"
 "http://www.w3.org/Graphics/SVG/1.1/DTD/svg11.dtd">
<!-- Generated by graphviz version 2.43.0 (0)
 -->
<!-- Title: drivers/platform/aducm3029/platform_init.h Pages: 1 -->
<svg width="2557pt" height="192pt"
 viewBox="0.00 0.00 2557.00 192.00" xmlns="http://www.w3.org/2000/svg" xmlns:xlink="http://www.w3.org/1999/xlink">
<g id="graph0" class="graph" transform="scale(1 1) rotate(0) translate(4 188)">
<title>drivers/platform/aducm3029/platform_init.h</title>
<!-- Node1 -->
<g id="Node000001" class="node">
<title>Node1</title>
<g id="a_Node000001"><a xlink:title="ADuCM3029 platform initialization header.">
<polygon fill="#999999" stroke="#666666" points="1278,-184 1123,-184 1123,-154 1278,-154 1278,-184"/>
<text text-anchor="start" x="1131" y="-172" font-family="Helvetica,sans-Serif" font-size="10.00">drivers/platform/aducm3029</text>
<text text-anchor="middle" x="1200.5" y="-161" font-family="Helvetica,sans-Serif" font-size="10.00">/platform_init.h</text>
</a>
</g>
</g>
<!-- Node2 -->
<g id="Node000002" class="node">
<title>Node2</title>
<g id="a_Node000002"><a xlink:href="ad7746-ebz_2src_2app_2headless_8c.html" target="_top" xlink:title="AD7746&#45;EBZ demo project main file.">
<polygon fill="white" stroke="#666666" points="155.5,-112.5 39.5,-112.5 39.5,-82.5 155.5,-82.5 155.5,-112.5"/>
<text text-anchor="start" x="47.5" y="-100.5" font-family="Helvetica,sans-Serif" font-size="10.00">projects/ad7746&#45;ebz</text>
<text text-anchor="middle" x="97.5" y="-89.5" font-family="Helvetica,sans-Serif" font-size="10.00">/src/app/headless.c</text>
</a>
</g>
</g>
<!-- Node1&#45;&gt;Node2 -->
<g id="edge1_Node000001_Node000002" class="edge">
<title>Node1&#45;&gt;Node2</title>
<g id="a_edge1_Node000001_Node000002"><a xlink:title=" ">
<path fill="none" stroke="#63b8ff" d="M1112.87,-166.42C897.36,-162.09 345.88,-148.34 164.5,-118 156.49,-116.66 148.09,-114.69 140.04,-112.5"/>
<polygon fill="#63b8ff" stroke="#63b8ff" points="1112.81,-169.92 1122.88,-166.61 1112.95,-162.92 1112.81,-169.92"/>
</a>
</g>
</g>
<!-- Node3 -->
<g id="Node000003" class="node">
<title>Node3</title>
<g id="a_Node000003"><a xlink:href="ada4250__ardz_2src_2platform_2aducm3029_2parameters_8h.html" target="_top" xlink:title="Definitions specific to ADuCM3029 platform used by ada4250_ardz project.">
<polygon fill="white" stroke="#666666" points="313,-118 174,-118 174,-77 313,-77 313,-118"/>
<text text-anchor="start" x="182" y="-106" font-family="Helvetica,sans-Serif" font-size="10.00">projects/ada4250_ardz</text>
<text text-anchor="start" x="182" y="-95" font-family="Helvetica,sans-Serif" font-size="10.00">/src/platform/aducm3029</text>
<text text-anchor="middle" x="243.5" y="-84" font-family="Helvetica,sans-Serif" font-size="10.00">/parameters.h</text>
</a>
</g>
</g>
<!-- Node1&#45;&gt;Node3 -->
<g id="edge2_Node000001_Node000003" class="edge">
<title>Node1&#45;&gt;Node3</title>
<g id="a_edge2_Node000001_Node000003"><a xlink:title=" ">
<path fill="none" stroke="#63b8ff" d="M1112.85,-167.09C956.6,-164.54 619.93,-154.85 338.5,-118 330.24,-116.92 321.62,-115.53 313.09,-113.98"/>
<polygon fill="#63b8ff" stroke="#63b8ff" points="1112.82,-170.59 1122.88,-167.25 1112.93,-163.59 1112.82,-170.59"/>
</a>
</g>
</g>
<!-- Node6 -->
<g id="Node000006" class="node">
<title>Node6</title>
<g id="a_Node000006"><a xlink:href="aducm3029__flash__demo_2src_2platform_2aducm3029_2parameters_8h.html" target="_top" xlink:title="Definitions specific to ADuCM3029 platform used by aducm3029_flash_demo project.">
<polygon fill="white" stroke="#666666" points="493,-118 348,-118 348,-77 493,-77 493,-118"/>
<text text-anchor="start" x="356" y="-106" font-family="Helvetica,sans-Serif" font-size="10.00">projects/aducm3029</text>
<text text-anchor="start" x="356" y="-95" font-family="Helvetica,sans-Serif" font-size="10.00">_flash_demo/src/platform</text>
<text text-anchor="middle" x="420.5" y="-84" font-family="Helvetica,sans-Serif" font-size="10.00">/aducm3029/parameters.h</text>
</a>
</g>
</g>
<!-- Node1&#45;&gt;Node6 -->
<g id="edge5_Node000001_Node000006" class="edge">
<title>Node1&#45;&gt;Node6</title>
<g id="a_edge5_Node000001_Node000006"><a xlink:title=" ">
<path fill="none" stroke="#63b8ff" d="M1112.49,-162.49C990.26,-154.51 762.27,-138.42 568.5,-118 543.89,-115.41 517.04,-112.03 493.05,-108.83"/>
<polygon fill="#63b8ff" stroke="#63b8ff" points="1112.34,-165.99 1122.54,-163.14 1112.79,-159 1112.34,-165.99"/>
</a>
</g>
</g>
<!-- Node8 -->
<g id="Node000008" class="node">
<title>Node8</title>
<g id="a_Node000008"><a xlink:href="aducm__blinky__example_2src_2platform_2aducm3029_2parameters_8h.html" target="_top" xlink:title=" ">
<polygon fill="white" stroke="#666666" points="723,-118 578,-118 578,-77 723,-77 723,-118"/>
<text text-anchor="start" x="586" y="-106" font-family="Helvetica,sans-Serif" font-size="10.00">projects/aducm_blinky</text>
<text text-anchor="start" x="586" y="-95" font-family="Helvetica,sans-Serif" font-size="10.00">_example/src/platform</text>
<text text-anchor="middle" x="650.5" y="-84" font-family="Helvetica,sans-Serif" font-size="10.00">/aducm3029/parameters.h</text>
</a>
</g>
</g>
<!-- Node1&#45;&gt;Node8 -->
<g id="edge7_Node000001_Node000008" class="edge">
<title>Node1&#45;&gt;Node8</title>
<g id="a_edge7_Node000001_Node000008"><a xlink:title=" ">
<path fill="none" stroke="#63b8ff" d="M1112.74,-159.31C1024.75,-150.26 885.49,-135.06 765.5,-118 751.77,-116.05 737.15,-113.74 723.1,-111.42"/>
<polygon fill="#63b8ff" stroke="#63b8ff" points="1112.64,-162.81 1122.94,-160.35 1113.35,-155.85 1112.64,-162.81"/>
</a>
</g>
</g>
<!-- Node10 -->
<g id="Node000010" class="node">
<title>Node10</title>
<g id="a_Node000010"><a xlink:href="adxrs290-pmdz_2src_2platform_2aducm3029_2parameters_8h.html" target="_top" xlink:title="Definitions specific to STM32 platform used by eval&#45;adxrs290&#45;pmdz project.">
<polygon fill="white" stroke="#666666" points="914,-118 775,-118 775,-77 914,-77 914,-118"/>
<text text-anchor="start" x="783" y="-106" font-family="Helvetica,sans-Serif" font-size="10.00">projects/adxrs290&#45;pmdz</text>
<text text-anchor="start" x="783" y="-95" font-family="Helvetica,sans-Serif" font-size="10.00">/src/platform/aducm3029</text>
<text text-anchor="middle" x="844.5" y="-84" font-family="Helvetica,sans-Serif" font-size="10.00">/parameters.h</text>
</a>
</g>
</g>
<!-- Node1&#45;&gt;Node10 -->
<g id="edge9_Node000001_Node000010" class="edge">
<title>Node1&#45;&gt;Node10</title>
<g id="a_edge9_Node000001_Node000010"><a xlink:title=" ">
<path fill="none" stroke="#63b8ff" d="M1118.34,-151.96C1056.46,-139.88 972.57,-123.5 914.01,-112.07"/>
<polygon fill="#63b8ff" stroke="#63b8ff" points="1117.97,-155.45 1128.46,-153.94 1119.31,-148.58 1117.97,-155.45"/>
</a>
</g>
</g>
<!-- Node13 -->
<g id="Node000013" class="node">
<title>Node13</title>
<g id="a_Node000013"><a xlink:href="cn0531_2src_2platform_2aducm3029_2parameters_8h.html" target="_top" xlink:title="Definitions specific to ADuCM3029 platform used by cn0531 project.">
<polygon fill="white" stroke="#666666" points="1126.5,-118 1004.5,-118 1004.5,-77 1126.5,-77 1126.5,-118"/>
<text text-anchor="start" x="1012.5" y="-106" font-family="Helvetica,sans-Serif" font-size="10.00">projects/cn0531/src</text>
<text text-anchor="start" x="1012.5" y="-95" font-family="Helvetica,sans-Serif" font-size="10.00">/platform/aducm3029</text>
<text text-anchor="middle" x="1065.5" y="-84" font-family="Helvetica,sans-Serif" font-size="10.00">/parameters.h</text>
</a>
</g>
</g>
<!-- Node1&#45;&gt;Node13 -->
<g id="edge12_Node000001_Node000013" class="edge">
<title>Node1&#45;&gt;Node13</title>
<g id="a_edge12_Node000001_Node000013"><a xlink:title=" ">
<path fill="none" stroke="#63b8ff" d="M1164.07,-149.24C1145.32,-139.59 1122.49,-127.84 1103.52,-118.07"/>
<polygon fill="#63b8ff" stroke="#63b8ff" points="1162.69,-152.47 1173.18,-153.94 1165.89,-146.25 1162.69,-152.47"/>
</a>
</g>
</g>
<!-- Node16 -->
<g id="Node000016" class="node">
<title>Node16</title>
<g id="a_Node000016"><a xlink:href="cn0552_2src_2app_2headless_8c.html" target="_top" xlink:title="CN0552 IIO demo project main file.">
<polygon fill="white" stroke="#666666" points="1256,-112.5 1145,-112.5 1145,-82.5 1256,-82.5 1256,-112.5"/>
<text text-anchor="start" x="1153" y="-100.5" font-family="Helvetica,sans-Serif" font-size="10.00">projects/cn0552/src</text>
<text text-anchor="middle" x="1200.5" y="-89.5" font-family="Helvetica,sans-Serif" font-size="10.00">/app/headless.c</text>
</a>
</g>
</g>
<!-- Node1&#45;&gt;Node16 -->
<g id="edge15_Node000001_Node000016" class="edge">
<title>Node1&#45;&gt;Node16</title>
<g id="a_edge15_Node000001_Node000016"><a xlink:title=" ">
<path fill="none" stroke="#63b8ff" d="M1200.5,-143.75C1200.5,-133.31 1200.5,-121.49 1200.5,-112.54"/>
<polygon fill="#63b8ff" stroke="#63b8ff" points="1197,-143.94 1200.5,-153.94 1204,-143.94 1197,-143.94"/>
</a>
</g>
</g>
<!-- Node17 -->
<g id="Node000017" class="node">
<title>Node17</title>
<g id="a_Node000017"><a xlink:href="cn0565_2src_2platform_2aducm3029_2parameters_8h.html" target="_top" xlink:title="Definitions specific to ADuCM3029 platform used by cn0565 project.">
<polygon fill="white" stroke="#666666" points="1396.5,-118 1274.5,-118 1274.5,-77 1396.5,-77 1396.5,-118"/>
<text text-anchor="start" x="1282.5" y="-106" font-family="Helvetica,sans-Serif" font-size="10.00">projects/cn0565/src</text>
<text text-anchor="start" x="1282.5" y="-95" font-family="Helvetica,sans-Serif" font-size="10.00">/platform/aducm3029</text>
<text text-anchor="middle" x="1335.5" y="-84" font-family="Helvetica,sans-Serif" font-size="10.00">/parameters.h</text>
</a>
</g>
</g>
<!-- Node1&#45;&gt;Node17 -->
<g id="edge16_Node000001_Node000017" class="edge">
<title>Node1&#45;&gt;Node17</title>
<g id="a_edge16_Node000001_Node000017"><a xlink:title=" ">
<path fill="none" stroke="#63b8ff" d="M1236.93,-149.24C1255.68,-139.59 1278.51,-127.84 1297.48,-118.07"/>
<polygon fill="#63b8ff" stroke="#63b8ff" points="1235.11,-146.25 1227.82,-153.94 1238.31,-152.47 1235.11,-146.25"/>
</a>
</g>
</g>
<!-- Node20 -->
<g id="Node000020" class="node">
<title>Node20</title>
<g id="a_Node000020"><a xlink:href="demo__esp_2src_2platform_2aducm3029_2parameters_8h.html" target="_top" xlink:title="Definitions specific to aducm3029 platform used by demo_esp project.">
<polygon fill="white" stroke="#666666" points="1666.5,-112.5 1476.5,-112.5 1476.5,-82.5 1666.5,-82.5 1666.5,-112.5"/>
<text text-anchor="start" x="1484.5" y="-100.5" font-family="Helvetica,sans-Serif" font-size="10.00">projects/demo_esp/src</text>
<text text-anchor="middle" x="1571.5" y="-89.5" font-family="Helvetica,sans-Serif" font-size="10.00">/platform/aducm3029/parameters.h</text>
</a>
</g>
</g>
<!-- Node1&#45;&gt;Node20 -->
<g id="edge19_Node000001_Node000020" class="edge">
<title>Node1&#45;&gt;Node20</title>
<g id="a_edge19_Node000001_Node000020"><a xlink:title=" ">
<path fill="none" stroke="#63b8ff" d="M1285.59,-152.06C1349.24,-140.14 1435.47,-123.98 1496.53,-112.54"/>
<polygon fill="#63b8ff" stroke="#63b8ff" points="1284.76,-148.65 1275.58,-153.94 1286.05,-155.53 1284.76,-148.65"/>
</a>
</g>
</g>
<!-- Node23 -->
<g id="Node000023" class="node">
<title>Node23</title>
<g id="a_Node000023"><a xlink:href="eval-adxl355-pmdz_2src_2platform_2aducm3029_2parameters_8h.html" target="_top" xlink:title="Definitions specific to aducm3029 platform used by eval&#45;adxl355&#45;pmdz project.">
<polygon fill="white" stroke="#666666" points="1950.5,-118 1780.5,-118 1780.5,-77 1950.5,-77 1950.5,-118"/>
<text text-anchor="start" x="1788.5" y="-106" font-family="Helvetica,sans-Serif" font-size="10.00">projects/eval&#45;adxl355</text>
<text text-anchor="start" x="1788.5" y="-95" font-family="Helvetica,sans-Serif" font-size="10.00">&#45;pmdz/src/platform/aducm3029</text>
<text text-anchor="middle" x="1865.5" y="-84" font-family="Helvetica,sans-Serif" font-size="10.00">/parameters.h</text>
</a>
</g>
</g>
<!-- Node1&#45;&gt;Node23 -->
<g id="edge22_Node000001_Node000023" class="edge">
<title>Node1&#45;&gt;Node23</title>
<g id="a_edge22_Node000001_Node000023"><a xlink:title=" ">
<path fill="none" stroke="#63b8ff" d="M1288.26,-158.83C1416.49,-145.43 1653.54,-120.65 1780.3,-107.4"/>
<polygon fill="#63b8ff" stroke="#63b8ff" points="1287.67,-155.37 1278.09,-159.89 1288.4,-162.33 1287.67,-155.37"/>
</a>
</g>
</g>
<!-- Node26 -->
<g id="Node000026" class="node">
<title>Node26</title>
<g id="a_Node000026"><a xlink:href="eval-ltc4306_2src_2platform_2aducm3029_2parameters_8h.html" target="_top" xlink:title="Definitions specific to aducm3029 platform used by eval&#45;ltc4306&#45;pmdz project.">
<polygon fill="white" stroke="#666666" points="2108,-118 1969,-118 1969,-77 2108,-77 2108,-118"/>
<text text-anchor="start" x="1977" y="-106" font-family="Helvetica,sans-Serif" font-size="10.00">projects/eval&#45;ltc4306</text>
<text text-anchor="start" x="1977" y="-95" font-family="Helvetica,sans-Serif" font-size="10.00">/src/platform/aducm3029</text>
<text text-anchor="middle" x="2038.5" y="-84" font-family="Helvetica,sans-Serif" font-size="10.00">/parameters.h</text>
</a>
</g>
</g>
<!-- Node1&#45;&gt;Node26 -->
<g id="edge25_Node000001_Node000026" class="edge">
<title>Node1&#45;&gt;Node26</title>
<g id="a_edge25_Node000001_Node000026"><a xlink:title=" ">
<path fill="none" stroke="#63b8ff" d="M1288.41,-167.22C1430.37,-164.85 1718.57,-155.37 1959.5,-118 1962.57,-117.52 1965.7,-116.99 1968.85,-116.4"/>
<polygon fill="#63b8ff" stroke="#63b8ff" points="1287.97,-163.73 1278.03,-167.39 1288.08,-170.73 1287.97,-163.73"/>
</a>
</g>
</g>
<!-- Node28 -->
<g id="Node000028" class="node">
<title>Node28</title>
<g id="a_Node000028"><a xlink:href="iio__adpd1080_2src_2platform_2aducm3029_2parameters_8h.html" target="_top" xlink:title="Definitions specific to ADuCM3029 platform used by iio_adpd1080 project.">
<polygon fill="white" stroke="#666666" points="2265,-118 2126,-118 2126,-77 2265,-77 2265,-118"/>
<text text-anchor="start" x="2134" y="-106" font-family="Helvetica,sans-Serif" font-size="10.00">projects/iio_adpd1080</text>
<text text-anchor="start" x="2134" y="-95" font-family="Helvetica,sans-Serif" font-size="10.00">/src/platform/aducm3029</text>
<text text-anchor="middle" x="2195.5" y="-84" font-family="Helvetica,sans-Serif" font-size="10.00">/parameters.h</text>
</a>
</g>
</g>
<!-- Node1&#45;&gt;Node28 -->
<g id="edge27_Node000001_Node000028" class="edge">
<title>Node1&#45;&gt;Node28</title>
<g id="a_edge27_Node000001_Node000028"><a xlink:title=" ">
<path fill="none" stroke="#63b8ff" d="M1288.33,-168.75C1452.27,-168.93 1815.61,-163.54 2117.5,-118 2120.26,-117.58 2123.07,-117.11 2125.89,-116.6"/>
<polygon fill="#63b8ff" stroke="#63b8ff" points="1288.3,-165.25 1278.3,-168.73 1288.29,-172.25 1288.3,-165.25"/>
</a>
</g>
</g>
<!-- Node30 -->
<g id="Node000030" class="node">
<title>Node30</title>
<g id="a_Node000030"><a xlink:href="iio__aducm3029_2src_2main_8c.html" target="_top" xlink:title="Implementation of Main Function.">
<polygon fill="white" stroke="#666666" points="2416,-112.5 2283,-112.5 2283,-82.5 2416,-82.5 2416,-112.5"/>
<text text-anchor="start" x="2291" y="-100.5" font-family="Helvetica,sans-Serif" font-size="10.00">projects/iio_aducm3029</text>
<text text-anchor="middle" x="2349.5" y="-89.5" font-family="Helvetica,sans-Serif" font-size="10.00">/src/main.c</text>
</a>
</g>
</g>
<!-- Node1&#45;&gt;Node30 -->
<g id="edge29_Node000001_Node000030" class="edge">
<title>Node1&#45;&gt;Node30</title>
<g id="a_edge29_Node000001_Node000030"><a xlink:title=" ">
<path fill="none" stroke="#63b8ff" d="M1288.48,-166.26C1509.76,-161.51 2085.22,-146.69 2274.5,-118 2283.28,-116.67 2292.52,-114.73 2301.39,-112.58"/>
<polygon fill="#63b8ff" stroke="#63b8ff" points="1288.14,-162.77 1278.22,-166.48 1288.29,-169.76 1288.14,-162.77"/>
</a>
</g>
</g>
<!-- Node4 -->
<g id="Node000004" class="node">
<title>Node4</title>
<g id="a_Node000004"><a xlink:href="ada4250__ardz_2src_2platform_2aducm3029_2main_8c.html" target="_top" xlink:title="Main file for ADuCM3029 platform of ada4250_ardz project.">
<polygon fill="white" stroke="#666666" points="139,-41 0,-41 0,0 139,0 139,-41"/>
<text text-anchor="start" x="8" y="-29" font-family="Helvetica,sans-Serif" font-size="10.00">projects/ada4250_ardz</text>
<text text-anchor="start" x="8" y="-18" font-family="Helvetica,sans-Serif" font-size="10.00">/src/platform/aducm3029</text>
<text text-anchor="middle" x="69.5" y="-7" font-family="Helvetica,sans-Serif" font-size="10.00">/main.c</text>
</a>
</g>
</g>
<!-- Node3&#45;&gt;Node4 -->
<g id="edge3_Node000003_Node000004" class="edge">
<title>Node3&#45;&gt;Node4</title>
<g id="a_edge3_Node000003_Node000004"><a xlink:title=" ">
<path fill="none" stroke="#63b8ff" d="M188.97,-73C165.14,-62.72 137.52,-50.82 114.84,-41.04"/>
<polygon fill="#63b8ff" stroke="#63b8ff" points="187.67,-76.25 198.24,-76.99 190.44,-69.82 187.67,-76.25"/>
</a>
</g>
</g>
<!-- Node5 -->
<g id="Node000005" class="node">
<title>Node5</title>
<g id="a_Node000005"><a xlink:href="ada4250__ardz_2src_2platform_2aducm3029_2parameters_8c.html" target="_top" xlink:title="Definition of ADuCM3029 platform data used by ada4250_ardz project.">
<polygon fill="white" stroke="#666666" points="296,-41 157,-41 157,0 296,0 296,-41"/>
<text text-anchor="start" x="165" y="-29" font-family="Helvetica,sans-Serif" font-size="10.00">projects/ada4250_ardz</text>
<text text-anchor="start" x="165" y="-18" font-family="Helvetica,sans-Serif" font-size="10.00">/src/platform/aducm3029</text>
<text text-anchor="middle" x="226.5" y="-7" font-family="Helvetica,sans-Serif" font-size="10.00">/parameters.c</text>
</a>
</g>
</g>
<!-- Node3&#45;&gt;Node5 -->
<g id="edge4_Node000003_Node000005" class="edge">
<title>Node3&#45;&gt;Node5</title>
<g id="a_edge4_Node000003_Node000005"><a xlink:title=" ">
<path fill="none" stroke="#63b8ff" d="M236.81,-66.98C234.84,-58.28 232.73,-48.98 230.94,-41.07"/>
<polygon fill="#63b8ff" stroke="#63b8ff" points="233.41,-67.82 239.03,-76.79 240.24,-66.27 233.41,-67.82"/>
</a>
</g>
</g>
<!-- Node7 -->
<g id="Node000007" class="node">
<title>Node7</title>
<g id="a_Node000007"><a xlink:href="aducm3029__flash__demo_2src_2platform_2aducm3029_2main_8c.html" target="_top" xlink:title="Main file for ADuCM3029 platform of aducm3029_flash_demo project.">
<polygon fill="white" stroke="#666666" points="454.5,-41 314.5,-41 314.5,0 454.5,0 454.5,-41"/>
<text text-anchor="start" x="322.5" y="-29" font-family="Helvetica,sans-Serif" font-size="10.00">projects/aducm3029</text>
<text text-anchor="start" x="322.5" y="-18" font-family="Helvetica,sans-Serif" font-size="10.00">_flash_demo/src/platform</text>
<text text-anchor="middle" x="384.5" y="-7" font-family="Helvetica,sans-Serif" font-size="10.00">/aducm3029/main.c</text>
</a>
</g>
</g>
<!-- Node6&#45;&gt;Node7 -->
<g id="edge6_Node000006_Node000007" class="edge">
<title>Node6&#45;&gt;Node7</title>
<g id="a_edge6_Node000006_Node000007"><a xlink:title=" ">
<path fill="none" stroke="#63b8ff" d="M406.6,-67.55C402.35,-58.69 397.77,-49.15 393.9,-41.07"/>
<polygon fill="#63b8ff" stroke="#63b8ff" points="403.56,-69.29 411.04,-76.79 409.87,-66.26 403.56,-69.29"/>
</a>
</g>
</g>
<!-- Node9 -->
<g id="Node000009" class="node">
<title>Node9</title>
<g id="a_Node000009"><a xlink:href="aducm__blinky__example_2src_2platform_2aducm3029_2main_8c.html" target="_top" xlink:title=" ">
<polygon fill="white" stroke="#666666" points="600,-41 473,-41 473,0 600,0 600,-41"/>
<text text-anchor="start" x="481" y="-29" font-family="Helvetica,sans-Serif" font-size="10.00">projects/aducm_blinky</text>
<text text-anchor="start" x="481" y="-18" font-family="Helvetica,sans-Serif" font-size="10.00">_example/src/platform</text>
<text text-anchor="middle" x="536.5" y="-7" font-family="Helvetica,sans-Serif" font-size="10.00">/aducm3029/main.c</text>
</a>
</g>
</g>
<!-- Node8&#45;&gt;Node9 -->
<g id="edge8_Node000008_Node000009" class="edge">
<title>Node8&#45;&gt;Node9</title>
<g id="a_edge8_Node000008_Node000009"><a xlink:title=" ">
<path fill="none" stroke="#63b8ff" d="M612.3,-71.37C597.34,-61.53 580.44,-50.41 566.4,-41.17"/>
<polygon fill="#63b8ff" stroke="#63b8ff" points="610.57,-74.42 620.85,-76.99 614.41,-68.57 610.57,-74.42"/>
</a>
</g>
</g>
<!-- Node11 -->
<g id="Node000011" class="node">
<title>Node11</title>
<g id="a_Node000011"><a xlink:href="adxrs290-pmdz_2src_2platform_2aducm3029_2main_8c.html" target="_top" xlink:title="Main file for STM32 platform of eval&#45;adxrs290&#45;pmdz project.">
<polygon fill="white" stroke="#666666" points="757,-41 618,-41 618,0 757,0 757,-41"/>
<text text-anchor="start" x="626" y="-29" font-family="Helvetica,sans-Serif" font-size="10.00">projects/adxrs290&#45;pmdz</text>
<text text-anchor="start" x="626" y="-18" font-family="Helvetica,sans-Serif" font-size="10.00">/src/platform/aducm3029</text>
<text text-anchor="middle" x="687.5" y="-7" font-family="Helvetica,sans-Serif" font-size="10.00">/main.c</text>
</a>
</g>
</g>
<!-- Node10&#45;&gt;Node11 -->
<g id="edge10_Node000010_Node000011" class="edge">
<title>Node10&#45;&gt;Node11</title>
<g id="a_edge10_Node000010_Node000011"><a xlink:title=" ">
<path fill="none" stroke="#63b8ff" d="M794.44,-72.59C773.13,-62.41 748.6,-50.69 728.41,-41.04"/>
<polygon fill="#63b8ff" stroke="#63b8ff" points="793.13,-75.84 803.66,-76.99 796.15,-69.52 793.13,-75.84"/>
</a>
</g>
</g>
<!-- Node12 -->
<g id="Node000012" class="node">
<title>Node12</title>
<g id="a_Node000012"><a xlink:href="adxrs290-pmdz_2src_2platform_2aducm3029_2parameters_8c.html" target="_top" xlink:title="Definition of STM32 platform data used by eval&#45;adxrs290&#45;pmdz project.">
<polygon fill="white" stroke="#666666" points="914,-41 775,-41 775,0 914,0 914,-41"/>
<text text-anchor="start" x="783" y="-29" font-family="Helvetica,sans-Serif" font-size="10.00">projects/adxrs290&#45;pmdz</text>
<text text-anchor="start" x="783" y="-18" font-family="Helvetica,sans-Serif" font-size="10.00">/src/platform/aducm3029</text>
<text text-anchor="middle" x="844.5" y="-7" font-family="Helvetica,sans-Serif" font-size="10.00">/parameters.c</text>
</a>
</g>
</g>
<!-- Node10&#45;&gt;Node12 -->
<g id="edge11_Node000010_Node000012" class="edge">
<title>Node10&#45;&gt;Node12</title>
<g id="a_edge11_Node000010_Node000012"><a xlink:title=" ">
<path fill="none" stroke="#63b8ff" d="M844.5,-66.69C844.5,-58.08 844.5,-48.9 844.5,-41.07"/>
<polygon fill="#63b8ff" stroke="#63b8ff" points="841,-66.79 844.5,-76.79 848,-66.79 841,-66.79"/>
</a>
</g>
</g>
<!-- Node14 -->
<g id="Node000014" class="node">
<title>Node14</title>
<g id="a_Node000014"><a xlink:href="cn0531_2src_2platform_2aducm3029_2main_8c.html" target="_top" xlink:title="Main file for ADuCM3029 platform of cn0531 project.">
<polygon fill="white" stroke="#666666" points="1054.5,-41 932.5,-41 932.5,0 1054.5,0 1054.5,-41"/>
<text text-anchor="start" x="940.5" y="-29" font-family="Helvetica,sans-Serif" font-size="10.00">projects/cn0531/src</text>
<text text-anchor="start" x="940.5" y="-18" font-family="Helvetica,sans-Serif" font-size="10.00">/platform/aducm3029</text>
<text text-anchor="middle" x="993.5" y="-7" font-family="Helvetica,sans-Serif" font-size="10.00">/main.c</text>
</a>
</g>
</g>
<!-- Node13&#45;&gt;Node14 -->
<g id="edge13_Node000013_Node000014" class="edge">
<title>Node13&#45;&gt;Node14</title>
<g id="a_edge13_Node000013_Node000014"><a xlink:title=" ">
<path fill="none" stroke="#63b8ff" d="M1039.59,-69.51C1030.57,-60.11 1020.63,-49.76 1012.29,-41.07"/>
<polygon fill="#63b8ff" stroke="#63b8ff" points="1037.13,-72 1046.58,-76.79 1042.18,-67.16 1037.13,-72"/>
</a>
</g>
</g>
<!-- Node15 -->
<g id="Node000015" class="node">
<title>Node15</title>
<g id="a_Node000015"><a xlink:href="cn0531_2src_2platform_2aducm3029_2parameters_8c.html" target="_top" xlink:title="Definition of ADuCM3029 platform data used by cn0531 project.">
<polygon fill="white" stroke="#666666" points="1194.5,-41 1072.5,-41 1072.5,0 1194.5,0 1194.5,-41"/>
<text text-anchor="start" x="1080.5" y="-29" font-family="Helvetica,sans-Serif" font-size="10.00">projects/cn0531/src</text>
<text text-anchor="start" x="1080.5" y="-18" font-family="Helvetica,sans-Serif" font-size="10.00">/platform/aducm3029</text>
<text text-anchor="middle" x="1133.5" y="-7" font-family="Helvetica,sans-Serif" font-size="10.00">/parameters.c</text>
</a>
</g>
</g>
<!-- Node13&#45;&gt;Node15 -->
<g id="edge14_Node000013_Node000015" class="edge">
<title>Node13&#45;&gt;Node15</title>
<g id="a_edge14_Node000013_Node000015"><a xlink:title=" ">
<path fill="none" stroke="#63b8ff" d="M1090.22,-69.23C1098.68,-59.91 1107.96,-49.67 1115.75,-41.07"/>
<polygon fill="#63b8ff" stroke="#63b8ff" points="1087.49,-67.04 1083.37,-76.79 1092.68,-71.74 1087.49,-67.04"/>
</a>
</g>
</g>
<!-- Node18 -->
<g id="Node000018" class="node">
<title>Node18</title>
<g id="a_Node000018"><a xlink:href="cn0565_2src_2platform_2aducm3029_2main_8c.html" target="_top" xlink:title="Main file for ADuCM3029 platform of cn0565 project.">
<polygon fill="white" stroke="#666666" points="1334.5,-41 1212.5,-41 1212.5,0 1334.5,0 1334.5,-41"/>
<text text-anchor="start" x="1220.5" y="-29" font-family="Helvetica,sans-Serif" font-size="10.00">projects/cn0565/src</text>
<text text-anchor="start" x="1220.5" y="-18" font-family="Helvetica,sans-Serif" font-size="10.00">/platform/aducm3029</text>
<text text-anchor="middle" x="1273.5" y="-7" font-family="Helvetica,sans-Serif" font-size="10.00">/main.c</text>
</a>
</g>
</g>
<!-- Node17&#45;&gt;Node18 -->
<g id="edge17_Node000017_Node000018" class="edge">
<title>Node17&#45;&gt;Node18</title>
<g id="a_edge17_Node000017_Node000018"><a xlink:title=" ">
<path fill="none" stroke="#63b8ff" d="M1312.73,-68.95C1305.08,-59.7 1296.72,-49.58 1289.68,-41.07"/>
<polygon fill="#63b8ff" stroke="#63b8ff" points="1310.14,-71.32 1319.21,-76.79 1315.54,-66.86 1310.14,-71.32"/>
</a>
</g>
</g>
<!-- Node19 -->
<g id="Node000019" class="node">
<title>Node19</title>
<g id="a_Node000019"><a xlink:href="cn0565_2src_2platform_2aducm3029_2parameters_8c.html" target="_top" xlink:title="Definition of ADuCM3029 platform data used by cn0565 project.">
<polygon fill="white" stroke="#666666" points="1474.5,-41 1352.5,-41 1352.5,0 1474.5,0 1474.5,-41"/>
<text text-anchor="start" x="1360.5" y="-29" font-family="Helvetica,sans-Serif" font-size="10.00">projects/cn0565/src</text>
<text text-anchor="start" x="1360.5" y="-18" font-family="Helvetica,sans-Serif" font-size="10.00">/platform/aducm3029</text>
<text text-anchor="middle" x="1413.5" y="-7" font-family="Helvetica,sans-Serif" font-size="10.00">/parameters.c</text>
</a>
</g>
</g>
<!-- Node17&#45;&gt;Node19 -->
<g id="edge18_Node000017_Node000019" class="edge">
<title>Node17&#45;&gt;Node19</title>
<g id="a_edge18_Node000017_Node000019"><a xlink:title=" ">
<path fill="none" stroke="#63b8ff" d="M1363.28,-69.79C1373.13,-60.32 1384.03,-49.84 1393.14,-41.07"/>
<polygon fill="#63b8ff" stroke="#63b8ff" points="1360.78,-67.34 1355.99,-76.79 1365.63,-72.39 1360.78,-67.34"/>
</a>
</g>
</g>
<!-- Node21 -->
<g id="Node000021" class="node">
<title>Node21</title>
<g id="a_Node000021"><a xlink:href="demo__esp_2src_2platform_2aducm3029_2main_8c.html" target="_top" xlink:title="Main file for aducm3029 platform of demo_esp project.">
<polygon fill="white" stroke="#666666" points="1650.5,-35.5 1492.5,-35.5 1492.5,-5.5 1650.5,-5.5 1650.5,-35.5"/>
<text text-anchor="start" x="1500.5" y="-23.5" font-family="Helvetica,sans-Serif" font-size="10.00">projects/demo_esp/src</text>
<text text-anchor="middle" x="1571.5" y="-12.5" font-family="Helvetica,sans-Serif" font-size="10.00">/platform/aducm3029/main.c</text>
</a>
</g>
</g>
<!-- Node20&#45;&gt;Node21 -->
<g id="edge20_Node000020_Node000021" class="edge">
<title>Node20&#45;&gt;Node21</title>
<g id="a_edge20_Node000020_Node000021"><a xlink:title=" ">
<path fill="none" stroke="#63b8ff" d="M1571.5,-72.04C1571.5,-59.95 1571.5,-45.79 1571.5,-35.54"/>
<polygon fill="#63b8ff" stroke="#63b8ff" points="1568,-72.39 1571.5,-82.39 1575,-72.39 1568,-72.39"/>
</a>
</g>
</g>
<!-- Node22 -->
<g id="Node000022" class="node">
<title>Node22</title>
<g id="a_Node000022"><a xlink:href="demo__esp_2src_2platform_2aducm3029_2parameters_8c.html" target="_top" xlink:title="Definition of aducm3029 platform data used by demo_esp.">
<polygon fill="white" stroke="#666666" points="1858,-35.5 1669,-35.5 1669,-5.5 1858,-5.5 1858,-35.5"/>
<text text-anchor="start" x="1677" y="-23.5" font-family="Helvetica,sans-Serif" font-size="10.00">projects/demo_esp/src</text>
<text text-anchor="middle" x="1763.5" y="-12.5" font-family="Helvetica,sans-Serif" font-size="10.00">/platform/aducm3029/parameters.c</text>
</a>
</g>
</g>
<!-- Node20&#45;&gt;Node22 -->
<g id="edge21_Node000020_Node000022" class="edge">
<title>Node20&#45;&gt;Node22</title>
<g id="a_edge21_Node000020_Node000022"><a xlink:title=" ">
<path fill="none" stroke="#63b8ff" d="M1617.25,-78.63C1651.03,-65.43 1696.35,-47.73 1727.55,-35.54"/>
<polygon fill="#63b8ff" stroke="#63b8ff" points="1615.65,-75.49 1607.61,-82.39 1618.2,-82.01 1615.65,-75.49"/>
</a>
</g>
</g>
<!-- Node24 -->
<g id="Node000024" class="node">
<title>Node24</title>
<g id="a_Node000024"><a xlink:href="eval-adxl355-pmdz_2src_2platform_2aducm3029_2main_8c.html" target="_top" xlink:title="Main file for aducm3029 platform of eval&#45;adxl355&#45;pmdz project.">
<polygon fill="white" stroke="#666666" points="2046.5,-41 1876.5,-41 1876.5,0 2046.5,0 2046.5,-41"/>
<text text-anchor="start" x="1884.5" y="-29" font-family="Helvetica,sans-Serif" font-size="10.00">projects/eval&#45;adxl355</text>
<text text-anchor="start" x="1884.5" y="-18" font-family="Helvetica,sans-Serif" font-size="10.00">&#45;pmdz/src/platform/aducm3029</text>
<text text-anchor="middle" x="1961.5" y="-7" font-family="Helvetica,sans-Serif" font-size="10.00">/main.c</text>
</a>
</g>
</g>
<!-- Node23&#45;&gt;Node24 -->
<g id="edge23_Node000023_Node000024" class="edge">
<title>Node23&#45;&gt;Node24</title>
<g id="a_edge23_Node000023_Node000024"><a xlink:title=" ">
<path fill="none" stroke="#63b8ff" d="M1898.38,-70.82C1910.79,-61.11 1924.72,-50.24 1936.32,-41.17"/>
<polygon fill="#63b8ff" stroke="#63b8ff" points="1896.2,-68.08 1890.47,-76.99 1900.51,-73.59 1896.2,-68.08"/>
</a>
</g>
</g>
<!-- Node25 -->
<g id="Node000025" class="node">
<title>Node25</title>
<g id="a_Node000025"><a xlink:href="eval-adxl355-pmdz_2src_2platform_2aducm3029_2parameters_8c.html" target="_top" xlink:title="Definition of aducm3029 platform data used by eval&#45;adxl355&#45;pmdz project.">
<polygon fill="white" stroke="#666666" points="2234.5,-41 2064.5,-41 2064.5,0 2234.5,0 2234.5,-41"/>
<text text-anchor="start" x="2072.5" y="-29" font-family="Helvetica,sans-Serif" font-size="10.00">projects/eval&#45;adxl355</text>
<text text-anchor="start" x="2072.5" y="-18" font-family="Helvetica,sans-Serif" font-size="10.00">&#45;pmdz/src/platform/aducm3029</text>
<text text-anchor="middle" x="2149.5" y="-7" font-family="Helvetica,sans-Serif" font-size="10.00">/parameters.c</text>
</a>
</g>
</g>
<!-- Node23&#45;&gt;Node25 -->
<g id="edge24_Node000023_Node000025" class="edge">
<title>Node23&#45;&gt;Node25</title>
<g id="a_edge24_Node000023_Node000025"><a xlink:title=" ">
<path fill="none" stroke="#63b8ff" d="M1949.12,-74.42C1989.19,-63.84 2036.76,-51.27 2075.5,-41.04"/>
<polygon fill="#63b8ff" stroke="#63b8ff" points="1948.15,-71.05 1939.38,-76.99 1949.94,-77.82 1948.15,-71.05"/>
</a>
</g>
</g>
<!-- Node27 -->
<g id="Node000027" class="node">
<title>Node27</title>
<g id="a_Node000027"><a xlink:href="eval-ltc4306_2src_2platform_2aducm3029_2main_8c.html" target="_top" xlink:title="Main file for aducm3029 platform of eval&#45;ltc4306&#45;pmdz project.">
<polygon fill="white" stroke="#666666" points="2392,-41 2253,-41 2253,0 2392,0 2392,-41"/>
<text text-anchor="start" x="2261" y="-29" font-family="Helvetica,sans-Serif" font-size="10.00">projects/eval&#45;ltc4306</text>
<text text-anchor="start" x="2261" y="-18" font-family="Helvetica,sans-Serif" font-size="10.00">/src/platform/aducm3029</text>
<text text-anchor="middle" x="2322.5" y="-7" font-family="Helvetica,sans-Serif" font-size="10.00">/main.c</text>
</a>
</g>
</g>
<!-- Node26&#45;&gt;Node27 -->
<g id="edge26_Node000026_Node000027" class="edge">
<title>Node26&#45;&gt;Node27</title>
<g id="a_edge26_Node000026_Node000027"><a xlink:title=" ">
<path fill="none" stroke="#63b8ff" d="M2118.07,-75.49C2160.47,-64.29 2212.15,-50.64 2252.93,-39.87"/>
<polygon fill="#63b8ff" stroke="#63b8ff" points="2117.11,-72.12 2108.34,-78.06 2118.9,-78.89 2117.11,-72.12"/>
</a>
</g>
</g>
<!-- Node29 -->
<g id="Node000029" class="node">
<title>Node29</title>
<g id="a_Node000029"><a xlink:href="iio__adpd1080_2src_2platform_2aducm3029_2main_8c.html" target="_top" xlink:title="Main file for ADuCM3029 platform of iio_adpd1080 project.">
<polygon fill="white" stroke="#666666" points="2549,-41 2410,-41 2410,0 2549,0 2549,-41"/>
<text text-anchor="start" x="2418" y="-29" font-family="Helvetica,sans-Serif" font-size="10.00">projects/iio_adpd1080</text>
<text text-anchor="start" x="2418" y="-18" font-family="Helvetica,sans-Serif" font-size="10.00">/src/platform/aducm3029</text>
<text text-anchor="middle" x="2479.5" y="-7" font-family="Helvetica,sans-Serif" font-size="10.00">/main.c</text>
</a>
</g>
</g>
<!-- Node28&#45;&gt;Node29 -->
<g id="edge28_Node000028_Node000029" class="edge">
<title>Node28&#45;&gt;Node29</title>
<g id="a_edge28_Node000028_Node000029"><a xlink:title=" ">
<path fill="none" stroke="#63b8ff" d="M2275.07,-75.49C2317.47,-64.29 2369.15,-50.64 2409.93,-39.87"/>
<polygon fill="#63b8ff" stroke="#63b8ff" points="2274.11,-72.12 2265.34,-78.06 2275.9,-78.89 2274.11,-72.12"/>
</a>
</g>
</g>
</g>
</svg>
